<svg width="29" height="29" viewBox="0 0 29 29" fill="none" xmlns="http://www.w3.org/2000/svg">
<path d="M0.666016 28.332C0.666016 25.5031 1.78982 22.7899 3.79021 20.7896C5.7906 18.7892 8.50371 17.6654 11.3327 17.6654C14.1617 17.6654 16.8748 18.7892 18.8752 20.7896C20.8755 22.7899 21.9993 25.5031 21.9993 28.332H19.3327C19.3327 26.2103 18.4898 24.1755 16.9895 22.6752C15.4892 21.1749 13.4544 20.332 11.3327 20.332C9.21095 20.332 7.17612 21.1749 5.67583 22.6752C4.17554 24.1755 3.33268 26.2103 3.33268 28.332H0.666016ZM11.3327 16.332C6.91268 16.332 3.33268 12.752 3.33268 8.33203C3.33268 3.91203 6.91268 0.332031 11.3327 0.332031C15.7527 0.332031 19.3327 3.91203 19.3327 8.33203C19.3327 12.752 15.7527 16.332 11.3327 16.332ZM11.3327 13.6654C14.2793 13.6654 16.666 11.2787 16.666 8.33203C16.666 5.38536 14.2793 2.9987 11.3327 2.9987C8.38602 2.9987 5.99935 5.38536 5.99935 8.33203C5.99935 11.2787 8.38602 13.6654 11.3327 13.6654ZM22.378 18.6027C24.2518 19.4466 25.842 20.8137 26.9575 22.5396C28.0729 24.2656 28.6662 26.277 28.666 28.332H25.9993C25.9997 26.7907 25.5548 25.282 24.7181 23.9875C23.8815 22.6929 22.6888 21.6676 21.2833 21.0347L22.3767 18.6027H22.378ZM21.4607 3.54936C22.804 4.10309 23.9526 5.04342 24.7607 6.25101C25.5688 7.4586 25.9999 8.87902 25.9993 10.332C25.9999 12.1618 25.3163 13.9257 24.0827 15.2771C22.8492 16.6286 21.1549 17.47 19.3327 17.636V14.952C20.3206 14.8105 21.2371 14.3561 21.9478 13.6553C22.6584 12.9546 23.1256 12.0445 23.2809 11.0586C23.4362 10.0728 23.2713 9.0631 22.8105 8.17784C22.3497 7.29258 21.6173 6.57836 20.7207 6.14003L21.4607 3.54936Z" fill="#222222"/>
</svg>
