<svg width="28" height="27" viewBox="0 0 28 27" fill="none" xmlns="http://www.w3.org/2000/svg">
<path d="M20.666 2.9987H25.9993C26.353 2.9987 26.6921 3.13917 26.9422 3.38922C27.1922 3.63927 27.3327 3.97841 27.3327 4.33203V25.6654C27.3327 26.019 27.1922 26.3581 26.9422 26.6082C26.6921 26.8582 26.353 26.9987 25.9993 26.9987H1.99935C1.64573 26.9987 1.30659 26.8582 1.05654 26.6082C0.806491 26.3581 0.666016 26.019 0.666016 25.6654V4.33203C0.666016 3.97841 0.806491 3.63927 1.05654 3.38922C1.30659 3.13917 1.64573 2.9987 1.99935 2.9987H7.33268V0.332031H9.99935V2.9987H17.9993V0.332031H20.666V2.9987ZM24.666 10.9987V5.66536H20.666V8.33203H17.9993V5.66536H9.99935V8.33203H7.33268V5.66536H3.33268V10.9987H24.666ZM24.666 13.6654H3.33268V24.332H24.666V13.6654ZM5.99935 16.332H12.666V21.6654H5.99935V16.332Z" fill="#222222"/>
</svg>
