<svg width="115" height="32" viewBox="0 0 115 32" fill="none" xmlns="http://www.w3.org/2000/svg">
<path d="M48.4418 13.0497C48.3045 12.6188 48.1198 12.233 47.8878 11.892C47.6605 11.5464 47.3883 11.2528 47.071 11.0114C46.7538 10.7652 46.3916 10.5781 45.9844 10.4503C45.5819 10.3224 45.1392 10.2585 44.6562 10.2585C43.8371 10.2585 43.0985 10.4692 42.4403 10.8906C41.7822 11.312 41.2614 11.9299 40.8778 12.7443C40.4991 13.554 40.3097 14.5459 40.3097 15.7202C40.3097 16.8991 40.5014 17.8958 40.8849 18.7102C41.2685 19.5246 41.794 20.1425 42.4616 20.5639C43.1293 20.9853 43.8892 21.196 44.7415 21.196C45.5322 21.196 46.2211 21.035 46.8082 20.7131C47.4001 20.3911 47.857 19.9366 48.179 19.3494C48.5057 18.7576 48.669 18.0616 48.669 17.2614L49.2372 17.3679H45.0753V15.5568H50.7926V17.2116C50.7926 18.4332 50.5322 19.4938 50.0114 20.3935C49.4953 21.2884 48.7803 21.9796 47.8665 22.4673C46.9574 22.955 45.9157 23.1989 44.7415 23.1989C43.4252 23.1989 42.2699 22.8958 41.2756 22.2898C40.286 21.6837 39.5142 20.8243 38.9602 19.7116C38.4063 18.5942 38.1293 17.2685 38.1293 15.7344C38.1293 14.5743 38.2902 13.5327 38.6122 12.6094C38.9342 11.6861 39.3864 10.9025 39.9688 10.2585C40.5559 9.60985 41.2448 9.11506 42.0355 8.77415C42.831 8.4285 43.6998 8.25568 44.642 8.25568C45.428 8.25568 46.1596 8.37169 46.8366 8.60369C47.5185 8.8357 48.1245 9.16477 48.6548 9.59091C49.1899 10.017 49.6326 10.5237 49.983 11.1108C50.3333 11.6932 50.5701 12.3395 50.6932 13.0497H48.4418ZM53.408 23V12.0909H55.4606V13.8239H55.5742C55.7731 13.2367 56.1235 12.7751 56.6254 12.4389C57.132 12.098 57.7049 11.9276 58.3441 11.9276C58.4767 11.9276 58.6329 11.9323 58.8129 11.9418C58.9975 11.9512 59.1419 11.9631 59.2461 11.9773V14.0085C59.1609 13.9848 59.0094 13.9588 58.7915 13.9304C58.5737 13.8973 58.3559 13.8807 58.1381 13.8807C57.6362 13.8807 57.1888 13.9872 56.7958 14.2003C56.4076 14.4086 56.0998 14.6998 55.8725 15.0739C55.6452 15.4432 55.5316 15.8646 55.5316 16.3381V23H53.408ZM64.1609 23.2415C63.4696 23.2415 62.8446 23.1136 62.2859 22.858C61.7272 22.5975 61.2844 22.2211 60.9577 21.7287C60.6358 21.2363 60.4748 20.6326 60.4748 19.9176C60.4748 19.3021 60.5932 18.7955 60.8299 18.3977C61.0666 18 61.3862 17.6851 61.7887 17.4531C62.1912 17.2211 62.641 17.0459 63.1381 16.9276C63.6353 16.8092 64.1419 16.7192 64.658 16.6577C65.3114 16.5819 65.8417 16.5204 66.2489 16.473C66.6561 16.4209 66.9521 16.3381 67.1367 16.2244C67.3214 16.1108 67.4137 15.9261 67.4137 15.6705V15.6207C67.4137 15.0005 67.2385 14.5199 66.8881 14.179C66.5425 13.8381 66.0264 13.6676 65.3398 13.6676C64.6249 13.6676 64.0614 13.8262 63.6495 14.1435C63.2423 14.456 62.9606 14.804 62.8043 15.1875L60.8086 14.733C61.0453 14.0701 61.391 13.535 61.8455 13.1278C62.3048 12.7159 62.8327 12.4176 63.4293 12.233C64.0259 12.0436 64.6533 11.9489 65.3114 11.9489C65.747 11.9489 66.2087 12.0009 66.6964 12.1051C67.1888 12.2045 67.6481 12.3892 68.0742 12.6591C68.5051 12.929 68.8578 13.3149 69.1325 13.8168C69.4071 14.3139 69.5444 14.9602 69.5444 15.7557V23H67.4705V21.5085H67.3853C67.248 21.7831 67.042 22.053 66.7674 22.3182C66.4928 22.5833 66.14 22.8035 65.7092 22.9787C65.2783 23.1539 64.7622 23.2415 64.1609 23.2415ZM64.6225 21.5369C65.2096 21.5369 65.7115 21.4209 66.1282 21.1889C66.5496 20.9569 66.8692 20.6539 67.087 20.2798C67.3095 19.901 67.4208 19.4962 67.4208 19.0653V17.6591C67.3451 17.7348 67.1983 17.8059 66.9805 17.8722C66.7674 17.9337 66.5236 17.9882 66.2489 18.0355C65.9743 18.0781 65.7068 18.1184 65.4464 18.1562C65.186 18.1894 64.9682 18.2178 64.793 18.2415C64.381 18.2936 64.0046 18.3812 63.6637 18.5043C63.3275 18.6274 63.0576 18.8049 62.854 19.0369C62.6552 19.2642 62.5558 19.5672 62.5558 19.946C62.5558 20.4716 62.7499 20.8693 63.1381 21.1392C63.5264 21.4044 64.0212 21.5369 64.6225 21.5369ZM74.4964 16.5227V23H72.3729V12.0909H74.4112V13.8665H74.5462C74.7971 13.2888 75.1901 12.8248 75.7251 12.4744C76.2649 12.1241 76.9444 11.9489 77.7635 11.9489C78.5069 11.9489 79.1579 12.1051 79.7166 12.4176C80.2753 12.7254 80.7086 13.1847 81.0163 13.7955C81.3241 14.4062 81.478 15.1615 81.478 16.0611V23H79.3544V16.3168C79.3544 15.526 79.1484 14.9081 78.7365 14.4631C78.3246 14.0133 77.7588 13.7884 77.0391 13.7884C76.5466 13.7884 76.1087 13.8949 75.7251 14.108C75.3464 14.321 75.0457 14.6335 74.8232 15.0455C74.6054 15.4527 74.4964 15.9451 74.4964 16.5227ZM89.4183 12.0909V13.7955H83.4595V12.0909H89.4183ZM85.0575 9.47727H87.1811V19.7969C87.1811 20.2088 87.2427 20.5189 87.3658 20.7273C87.4889 20.9309 87.6475 21.0705 87.8416 21.1463C88.0405 21.2173 88.2559 21.2528 88.4879 21.2528C88.6584 21.2528 88.8075 21.241 88.9354 21.2173C89.0632 21.1937 89.1626 21.1747 89.2337 21.1605L89.6172 22.9148C89.4941 22.9621 89.3189 23.0095 89.0916 23.0568C88.8643 23.1089 88.5803 23.1373 88.2393 23.142C87.6806 23.1515 87.1598 23.0521 86.6768 22.8438C86.1939 22.6354 85.8033 22.3134 85.505 21.8778C85.2067 21.4422 85.0575 20.8954 85.0575 20.2372V9.47727ZM94.1254 8.45455V23H92.0018V8.45455H94.1254ZM100.157 23.2415C99.4657 23.2415 98.8407 23.1136 98.282 22.858C97.7232 22.5975 97.2805 22.2211 96.9538 21.7287C96.6319 21.2363 96.4709 20.6326 96.4709 19.9176C96.4709 19.3021 96.5893 18.7955 96.826 18.3977C97.0627 18 97.3823 17.6851 97.7848 17.4531C98.1873 17.2211 98.6371 17.0459 99.1342 16.9276C99.6314 16.8092 100.138 16.7192 100.654 16.6577C101.308 16.5819 101.838 16.5204 102.245 16.473C102.652 16.4209 102.948 16.3381 103.133 16.2244C103.317 16.1108 103.41 15.9261 103.41 15.6705V15.6207C103.41 15.0005 103.235 14.5199 102.884 14.179C102.539 13.8381 102.022 13.6676 101.336 13.6676C100.621 13.6676 100.058 13.8262 99.6456 14.1435C99.2384 14.456 98.9567 14.804 98.8004 15.1875L96.8047 14.733C97.0414 14.0701 97.3871 13.535 97.8416 13.1278C98.3009 12.7159 98.8288 12.4176 99.4254 12.233C100.022 12.0436 100.649 11.9489 101.308 11.9489C101.743 11.9489 102.205 12.0009 102.692 12.1051C103.185 12.2045 103.644 12.3892 104.07 12.6591C104.501 12.929 104.854 13.3149 105.129 13.8168C105.403 14.3139 105.54 14.9602 105.54 15.7557V23H103.467V21.5085H103.381C103.244 21.7831 103.038 22.053 102.763 22.3182C102.489 22.5833 102.136 22.8035 101.705 22.9787C101.274 23.1539 100.758 23.2415 100.157 23.2415ZM100.619 21.5369C101.206 21.5369 101.708 21.4209 102.124 21.1889C102.546 20.9569 102.865 20.6539 103.083 20.2798C103.306 19.901 103.417 19.4962 103.417 19.0653V17.6591C103.341 17.7348 103.194 17.8059 102.977 17.8722C102.763 17.9337 102.52 17.9882 102.245 18.0355C101.97 18.0781 101.703 18.1184 101.442 18.1562C101.182 18.1894 100.964 18.2178 100.789 18.2415C100.377 18.2936 100.001 18.3812 99.6598 18.5043C99.3236 18.6274 99.0537 18.8049 98.8501 19.0369C98.6513 19.2642 98.5518 19.5672 98.5518 19.946C98.5518 20.4716 98.746 20.8693 99.1342 21.1392C99.5225 21.4044 100.017 21.5369 100.619 21.5369ZM108.369 23V12.0909H110.422V13.8239H110.535C110.734 13.2367 111.084 12.7751 111.586 12.4389C112.093 12.098 112.666 11.9276 113.305 11.9276C113.438 11.9276 113.594 11.9323 113.774 11.9418C113.958 11.9512 114.103 11.9631 114.207 11.9773V14.0085C114.122 13.9848 113.97 13.9588 113.752 13.9304C113.535 13.8973 113.317 13.8807 113.099 13.8807C112.597 13.8807 112.15 13.9872 111.757 14.2003C111.368 14.4086 111.061 14.6998 110.833 15.0739C110.606 15.4432 110.493 15.8646 110.493 16.3381V23H108.369Z" fill="#222222"/>
<g clip-path="url(#clip0_714_5108)">
<path d="M2.66602 5.324C2.66846 4.97384 2.80855 4.63869 3.05603 4.39096C3.30352 4.14322 3.63852 4.00279 3.98868 4H28.01C28.7407 4 29.3327 4.59333 29.3327 5.324V26.676C29.3302 27.0262 29.1901 27.3613 28.9427 27.609C28.6952 27.8568 28.3602 27.9972 28.01 28H3.98868C3.63777 27.9996 3.30134 27.86 3.05333 27.6117C2.80533 27.3635 2.66602 27.0269 2.66602 26.676V5.324ZM14.666 6.66667H5.33268V25.3333H14.666V6.66667ZM17.3327 6.66667V25.3333H26.666V6.66667H17.3327ZM18.666 9.33333H25.3327V12H18.666V9.33333ZM18.666 13.3333H25.3327V16H18.666V13.3333Z" fill="#222222"/>
</g>
<defs>
<clipPath id="clip0_714_5108">
<rect width="32" height="32" fill="white"/>
</clipPath>
</defs>
</svg>
