<svg width="30" height="30" viewBox="0 0 30 30" fill="none" xmlns="http://www.w3.org/2000/svg">
<circle cx="15" cy="15" r="15" fill="black" fill-opacity="0.86"/>
<g clip-path="url(#clip0_714_11309)">
<path d="M15.0005 11.2645C16.175 10.21 17.99 10.245 19.1215 11.3785C20.2525 12.5125 20.2915 14.3185 19.2395 15.4965L14.9995 19.7425L10.7605 15.4965C9.7085 14.3185 9.748 12.5095 10.8785 11.3785C12.011 10.2465 13.8225 10.2085 15.0005 11.2645ZM18.4135 12.085C17.6635 11.334 16.4535 11.3035 15.6685 12.0085L15.001 12.6075L14.333 12.009C13.5455 11.303 12.338 11.334 11.586 12.086C10.841 12.831 10.8035 14.0235 11.49 14.8115L15 18.327L18.51 14.812C19.197 14.0235 19.1595 12.8325 18.4135 12.085Z" fill="white"/>
</g>
<defs>
<clipPath id="clip0_714_11309">
<rect width="12" height="12" fill="white" transform="translate(9 9)"/>
</clipPath>
</defs>
</svg>
