<svg width="30" height="27" viewBox="0 0 30 27" fill="none" xmlns="http://www.w3.org/2000/svg">
<path d="M24.334 26.9986H5.66732C5.3137 26.9986 4.97456 26.8581 4.72451 26.6081C4.47446 26.358 4.33398 26.0189 4.33398 25.6653V13.6653H0.333984L14.1033 1.14792C14.3488 0.924562 14.6688 0.800781 15.0007 0.800781C15.3325 0.800781 15.6525 0.924562 15.898 1.14792L29.6673 13.6653H25.6673V25.6653C25.6673 26.0189 25.5268 26.358 25.2768 26.6081C25.0267 26.8581 24.6876 26.9986 24.334 26.9986ZM7.00065 24.3319H23.0007V11.2079L15.0007 3.93592L7.00065 11.2079V24.3319ZM9.66732 18.9986H20.334V21.6653H9.66732V18.9986Z" fill="#222222"/>
</svg>
