<svg width="85" height="28" viewBox="0 0 85 28" fill="none" xmlns="http://www.w3.org/2000/svg">
<path d="M31.0114 20V8.36364H33.4716V13.4943H33.625L37.8125 8.36364H40.7614L36.4432 13.5739L40.8125 20H37.8693L34.6818 15.2159L33.4716 16.6932V20H31.0114ZM47.0469 16.2841V11.2727H49.4673V20H47.1435V18.4148H47.0526C46.8556 18.9261 46.5279 19.3371 46.0696 19.6477C45.6151 19.9583 45.0601 20.1136 44.4048 20.1136C43.8215 20.1136 43.3082 19.9811 42.8651 19.7159C42.4219 19.4508 42.0753 19.0739 41.8253 18.5852C41.5791 18.0966 41.4541 17.5114 41.4503 16.8295V11.2727H43.8707V16.3977C43.8745 16.9129 44.0128 17.3201 44.2855 17.6193C44.5582 17.9186 44.9238 18.0682 45.3821 18.0682C45.6738 18.0682 45.9465 18.0019 46.2003 17.8693C46.4541 17.733 46.6586 17.5322 46.8139 17.267C46.973 17.0019 47.0507 16.6742 47.0469 16.2841ZM53.8239 14.9545V20H51.4034V11.2727H53.7102V12.8125H53.8125C54.0057 12.3049 54.3295 11.9034 54.7841 11.608C55.2386 11.3087 55.7898 11.1591 56.4375 11.1591C57.0436 11.1591 57.572 11.2917 58.0227 11.5568C58.4735 11.822 58.8239 12.2008 59.0739 12.6932C59.3239 13.1818 59.4489 13.7652 59.4489 14.4432V20H57.0284V14.875C57.0322 14.3409 56.8958 13.9242 56.6193 13.625C56.3428 13.322 55.9621 13.1705 55.4773 13.1705C55.1515 13.1705 54.8636 13.2405 54.6136 13.3807C54.3674 13.5208 54.1742 13.7254 54.0341 13.9943C53.8977 14.2595 53.8277 14.5795 53.8239 14.9545ZM62.7713 20.1477C62.3963 20.1477 62.0743 20.0152 61.8054 19.75C61.5402 19.4811 61.4077 19.1591 61.4077 18.7841C61.4077 18.4129 61.5402 18.0947 61.8054 17.8295C62.0743 17.5644 62.3963 17.4318 62.7713 17.4318C63.1349 17.4318 63.4531 17.5644 63.7259 17.8295C63.9986 18.0947 64.1349 18.4129 64.1349 18.7841C64.1349 19.0341 64.0705 19.2633 63.9418 19.4716C63.8168 19.6761 63.652 19.8409 63.4474 19.9659C63.2429 20.0871 63.0175 20.1477 62.7713 20.1477ZM71.7188 16.2841V11.2727H74.1392V20H71.8153V18.4148H71.7244C71.5275 18.9261 71.1998 19.3371 70.7415 19.6477C70.2869 19.9583 69.732 20.1136 69.0767 20.1136C68.4934 20.1136 67.9801 19.9811 67.5369 19.7159C67.0938 19.4508 66.7472 19.0739 66.4972 18.5852C66.2509 18.0966 66.1259 17.5114 66.1222 16.8295V11.2727H68.5426V16.3977C68.5464 16.9129 68.6847 17.3201 68.9574 17.6193C69.2301 17.9186 69.5956 18.0682 70.054 18.0682C70.3456 18.0682 70.6184 18.0019 70.8722 17.8693C71.1259 17.733 71.3305 17.5322 71.4858 17.267C71.6449 17.0019 71.7225 16.6742 71.7188 16.2841ZM76.0298 20V18.5568L80.3026 13.267V13.2045H76.1776V11.2727H83.2173V12.8466L79.206 18.0057V18.0682H83.3651V20H76.0298Z" fill="#222222"/>
<rect width="27" height="28"/>
</svg>
