<svg width="10" height="12" viewBox="0 0 10 12" fill="none" xmlns="http://www.w3.org/2000/svg">
<path d="M4.99984 1.5C4.60202 1.5 4.22049 1.65804 3.93918 1.93934C3.65788 2.22064 3.49984 2.60218 3.49984 3V5C3.49984 5.39782 3.65788 5.77936 3.93918 6.06066C4.22049 6.34196 4.60202 6.5 4.99984 6.5C5.39767 6.5 5.7792 6.34196 6.0605 6.06066C6.34181 5.77936 6.49984 5.39782 6.49984 5V3C6.49984 2.60218 6.34181 2.22064 6.0605 1.93934C5.7792 1.65804 5.39767 1.5 4.99984 1.5ZM4.99984 0.5C5.32815 0.5 5.65324 0.564664 5.95655 0.690301C6.25987 0.815938 6.53546 1.00009 6.76761 1.23223C6.99976 1.46438 7.18391 1.73998 7.30954 2.04329C7.43518 2.34661 7.49984 2.6717 7.49984 3V5C7.49984 5.66304 7.23645 6.29893 6.76761 6.76777C6.29877 7.23661 5.66288 7.5 4.99984 7.5C4.3368 7.5 3.70092 7.23661 3.23208 6.76777C2.76324 6.29893 2.49984 5.66304 2.49984 5V3C2.49984 2.33696 2.76324 1.70107 3.23208 1.23223C3.70092 0.763392 4.3368 0.5 4.99984 0.5ZM0.527344 5.5H1.53484C1.65599 6.33239 2.07278 7.09334 2.70896 7.64363C3.34514 8.19393 4.15818 8.49678 4.99934 8.49678C5.8405 8.49678 6.65355 8.19393 7.28973 7.64363C7.92591 7.09334 8.3427 6.33239 8.46384 5.5H9.47184C9.35816 6.51436 8.90315 7.45997 8.18145 8.18177C7.45975 8.90356 6.51419 9.35869 5.49984 9.4725V11.5H4.49984V9.4725C3.48541 9.35879 2.53974 8.90372 1.81793 8.18191C1.09613 7.46011 0.64105 6.51443 0.527344 5.5Z" fill="#222222"/>
</svg>
