<svg width="28" height="28" viewBox="0 0 28 28" fill="none" xmlns="http://www.w3.org/2000/svg">
<path d="M19.3327 24.668V3.33464H3.33268V23.3346C3.33268 23.6883 3.47316 24.0274 3.72321 24.2774C3.97326 24.5275 4.31239 24.668 4.66602 24.668H19.3327ZM23.3327 27.3346H4.66602C3.60515 27.3346 2.58773 26.9132 1.83759 26.1631C1.08744 25.4129 0.666016 24.3955 0.666016 23.3346V2.0013C0.666016 1.64768 0.806491 1.30854 1.05654 1.05849C1.30659 0.808444 1.64573 0.667969 1.99935 0.667969H20.666C21.0196 0.667969 21.3588 0.808444 21.6088 1.05849C21.8589 1.30854 21.9993 1.64768 21.9993 2.0013V11.3346H27.3327V23.3346C27.3327 24.3955 26.9113 25.4129 26.1611 26.1631C25.411 26.9132 24.3935 27.3346 23.3327 27.3346ZM21.9993 14.0013V23.3346C21.9993 23.6883 22.1398 24.0274 22.3899 24.2774C22.6399 24.5275 22.9791 24.668 23.3327 24.668C23.6863 24.668 24.0254 24.5275 24.2755 24.2774C24.5255 24.0274 24.666 23.6883 24.666 23.3346V14.0013H21.9993ZM5.99935 6.0013H13.9993V14.0013H5.99935V6.0013ZM8.66602 8.66797V11.3346H11.3327V8.66797H8.66602ZM5.99935 15.3346H16.666V18.0013H5.99935V15.3346ZM5.99935 19.3346H16.666V22.0013H5.99935V19.3346Z" fill="#222222"/>
</svg>
