<svg width="28" height="27" viewBox="0 0 28 27" fill="none" xmlns="http://www.w3.org/2000/svg">
<path d="M18.5514 5.6651H26.01C26.7407 5.6651 27.3327 6.25844 27.3327 6.99844V25.6651C27.3327 26.4011 26.726 26.9984 26.01 26.9984H1.98871C1.81421 26.9981 1.6415 26.9633 1.48049 26.896C1.31948 26.8288 1.17333 26.7304 1.05044 26.6065C0.92755 26.4826 0.830332 26.3357 0.764366 26.1741C0.698401 26.0126 0.664986 25.8396 0.66604 25.6651V6.99844C0.66604 6.26244 1.27271 5.6651 1.98871 5.6651H9.44737L6.06604 2.28377L7.95137 0.398438L13.218 5.6651H14.7807L20.0474 0.398438L21.9327 2.28377L18.5514 5.6651ZM3.33271 8.33177V24.3318H24.666V8.33177H3.33271Z" fill="#222222"/>
</svg>
