<svg width="20" height="21" viewBox="0 0 20 21" fill="none" xmlns="http://www.w3.org/2000/svg">
<path d="M4.17 16.9985C4.3766 16.413 4.75974 15.906 5.2666 15.5473C5.77346 15.1887 6.37909 14.9961 7 14.9961C7.62091 14.9961 8.22654 15.1887 8.7334 15.5473C9.24026 15.906 9.6234 16.413 9.83 16.9985H20V18.9985H9.83C9.6234 19.5841 9.24026 20.0911 8.7334 20.4498C8.22654 20.8084 7.62091 21.001 7 21.001C6.37909 21.001 5.77346 20.8084 5.2666 20.4498C4.75974 20.0911 4.3766 19.5841 4.17 18.9985H0V16.9985H4.17ZM10.17 9.99854C10.3766 9.41301 10.7597 8.90598 11.2666 8.54733C11.7735 8.18869 12.3791 7.99609 13 7.99609C13.6209 7.99609 14.2265 8.18869 14.7334 8.54733C15.2403 8.90598 15.6234 9.41301 15.83 9.99854H20V11.9985H15.83C15.6234 12.5841 15.2403 13.0911 14.7334 13.4498C14.2265 13.8084 13.6209 14.001 13 14.001C12.3791 14.001 11.7735 13.8084 11.2666 13.4498C10.7597 13.0911 10.3766 12.5841 10.17 11.9985H0V9.99854H10.17ZM4.17 2.99854C4.3766 2.41301 4.75974 1.90598 5.2666 1.54733C5.77346 1.18869 6.37909 0.996094 7 0.996094C7.62091 0.996094 8.22654 1.18869 8.7334 1.54733C9.24026 1.90598 9.6234 2.41301 9.83 2.99854H20V4.99854H9.83C9.6234 5.58408 9.24026 6.09111 8.7334 6.44975C8.22654 6.8084 7.62091 7.001 7 7.001C6.37909 7.001 5.77346 6.8084 5.2666 6.44975C4.75974 6.09111 4.3766 5.58408 4.17 4.99854H0V2.99854H4.17ZM7 4.99854C7.26522 4.99854 7.51957 4.89319 7.70711 4.70565C7.89464 4.51811 8 4.26376 8 3.99854C8 3.73333 7.89464 3.47897 7.70711 3.29144C7.51957 3.1039 7.26522 2.99854 7 2.99854C6.73478 2.99854 6.48043 3.1039 6.29289 3.29144C6.10536 3.47897 6 3.73333 6 3.99854C6 4.26376 6.10536 4.51811 6.29289 4.70565C6.48043 4.89319 6.73478 4.99854 7 4.99854ZM13 11.9985C13.2652 11.9985 13.5196 11.8932 13.7071 11.7057C13.8946 11.5181 14 11.2638 14 10.9985C14 10.7333 13.8946 10.479 13.7071 10.2914C13.5196 10.1039 13.2652 9.99854 13 9.99854C12.7348 9.99854 12.4804 10.1039 12.2929 10.2914C12.1054 10.479 12 10.7333 12 10.9985C12 11.2638 12.1054 11.5181 12.2929 11.7057C12.4804 11.8932 12.7348 11.9985 13 11.9985ZM7 18.9985C7.26522 18.9985 7.51957 18.8932 7.70711 18.7057C7.89464 18.5181 8 18.2638 8 17.9985C8 17.7333 7.89464 17.479 7.70711 17.2914C7.51957 17.1039 7.26522 16.9985 7 16.9985C6.73478 16.9985 6.48043 17.1039 6.29289 17.2914C6.10536 17.479 6 17.7333 6 17.9985C6 18.2638 6.10536 18.5181 6.29289 18.7057C6.48043 18.8932 6.73478 18.9985 7 18.9985Z" fill="#222222"/>
</svg>
