<svg width="20" height="21" viewBox="0 0 20 21" fill="none" xmlns="http://www.w3.org/2000/svg">
<path d="M1.33933 15.0018C0.916599 14.2708 0.587993 13.4892 0.361328 12.6758C0.854635 12.4249 1.26892 12.0424 1.55836 11.5707C1.84779 11.0989 2.00109 10.5563 2.0013 10.0029C2.00151 9.44944 1.84861 8.90672 1.55953 8.43478C1.27045 7.96283 0.856448 7.58005 0.363328 7.32878C0.815364 5.69426 1.67606 4.20173 2.86433 2.99178C3.32842 3.2935 3.86695 3.46094 4.42031 3.47556C4.97367 3.49018 5.52028 3.35141 5.99966 3.07461C6.47904 2.79781 6.87248 2.39377 7.13646 1.90722C7.40043 1.42066 7.52463 0.870552 7.49533 0.317776C9.13744 -0.106602 10.8606 -0.105913 12.5023 0.319776C12.4733 0.872541 12.5977 1.42257 12.8619 1.90898C13.1261 2.3954 13.5197 2.79925 13.9992 3.07584C14.4786 3.35242 15.0253 3.49096 15.5786 3.47613C16.1319 3.46129 16.6704 3.29366 17.1343 2.99178C17.7133 3.58178 18.2273 4.25278 18.6593 5.00178C19.0923 5.75078 19.4163 6.53178 19.6373 7.32778C19.144 7.57868 18.7297 7.96115 18.4403 8.43288C18.1509 8.90461 17.9976 9.44722 17.9974 10.0007C17.9971 10.5541 18.15 11.0968 18.4391 11.5688C18.7282 12.0407 19.1422 12.4235 19.6353 12.6748C19.1833 14.3093 18.3226 15.8018 17.1343 17.0118C16.6702 16.7101 16.1317 16.5426 15.5784 16.528C15.025 16.5134 14.4784 16.6521 13.999 16.9289C13.5196 17.2057 13.1262 17.6098 12.8622 18.0963C12.5982 18.5829 12.474 19.133 12.5033 19.6858C10.8612 20.1102 9.1381 20.1095 7.49633 19.6838C7.52537 19.131 7.40093 18.581 7.13675 18.0946C6.87257 17.6081 6.47897 17.2043 5.9995 16.9277C5.52003 16.6511 4.97338 16.5126 4.42005 16.5274C3.86673 16.5423 3.32829 16.7099 2.86433 17.0118C2.27332 16.4087 1.76092 15.7334 1.33933 15.0018ZM6.99933 15.1978C8.06496 15.8124 8.86617 16.7988 9.24933 17.9678C9.74833 18.0148 10.2493 18.0158 10.7483 17.9688C11.1317 16.7996 11.9333 15.8132 12.9993 15.1988C14.0645 14.5825 15.3199 14.3813 16.5243 14.6338C16.8143 14.2258 17.0643 13.7908 17.2723 13.3358C16.4518 12.4192 15.9984 11.232 15.9993 10.0018C15.9993 8.74178 16.4693 7.56478 17.2723 6.66778C17.0629 6.21292 16.8118 5.77841 16.5223 5.36978C15.3186 5.62209 14.0641 5.42125 12.9993 4.80578C11.9337 4.19115 11.1325 3.20476 10.7493 2.03578C10.2503 1.98878 9.74933 1.98778 9.25033 2.03478C8.86693 3.20392 8.06533 4.19034 6.99933 4.80478C5.93411 5.42109 4.67881 5.6223 3.47433 5.36978C3.18489 5.77806 2.93446 6.21264 2.72633 6.66778C3.5469 7.58434 4.00021 8.77157 3.99933 10.0018C3.99933 11.2618 3.52933 12.4388 2.72633 13.3358C2.9358 13.7906 3.18687 14.2251 3.47633 14.6338C4.68005 14.3815 5.93454 14.5823 6.99933 15.1978ZM9.99933 13.0018C9.20368 13.0018 8.44062 12.6857 7.87801 12.1231C7.3154 11.5605 6.99933 10.7974 6.99933 10.0018C6.99933 9.20613 7.3154 8.44306 7.87801 7.88046C8.44062 7.31785 9.20368 7.00178 9.99933 7.00178C10.795 7.00178 11.558 7.31785 12.1206 7.88046C12.6833 8.44306 12.9993 9.20613 12.9993 10.0018C12.9993 10.7974 12.6833 11.5605 12.1206 12.1231C11.558 12.6857 10.795 13.0018 9.99933 13.0018ZM9.99933 11.0018C10.2645 11.0018 10.5189 10.8964 10.7064 10.7089C10.894 10.5213 10.9993 10.267 10.9993 10.0018C10.9993 9.73656 10.894 9.48221 10.7064 9.29467C10.5189 9.10713 10.2645 9.00178 9.99933 9.00178C9.73411 9.00178 9.47976 9.10713 9.29222 9.29467C9.10468 9.48221 8.99933 9.73656 8.99933 10.0018C8.99933 10.267 9.10468 10.5213 9.29222 10.7089C9.47976 10.8964 9.73411 11.0018 9.99933 11.0018Z" fill="#222222"/>
</svg>
