<svg width="14" height="14" viewBox="0 0 14 14" fill="none" xmlns="http://www.w3.org/2000/svg">
<path d="M10.334 2.0013H13.0007C13.1775 2.0013 13.347 2.07154 13.4721 2.19656C13.5971 2.32159 13.6673 2.49116 13.6673 2.66797V13.3346C13.6673 13.5114 13.5971 13.681 13.4721 13.806C13.347 13.9311 13.1775 14.0013 13.0007 14.0013H1.00065C0.82384 14.0013 0.654271 13.9311 0.529246 13.806C0.404222 13.681 0.333984 13.5114 0.333984 13.3346V2.66797C0.333984 2.49116 0.404222 2.32159 0.529246 2.19656C0.654271 2.07154 0.82384 2.0013 1.00065 2.0013H3.66732V0.667969H5.00065V2.0013H9.00065V0.667969H10.334V2.0013ZM12.334 7.33463H1.66732V12.668H12.334V7.33463ZM9.00065 3.33464H5.00065V4.66797H3.66732V3.33464H1.66732V6.0013H12.334V3.33464H10.334V4.66797H9.00065V3.33464ZM3.00065 8.66797H4.33398V10.0013H3.00065V8.66797ZM6.33398 8.66797H7.66732V10.0013H6.33398V8.66797ZM9.66732 8.66797H11.0007V10.0013H9.66732V8.66797Z" fill="#767272"/>
</svg>
