<svg width="12" height="15" viewBox="0 0 12 15" fill="none" xmlns="http://www.w3.org/2000/svg">
<path d="M1.33317 0.335938H10.6665C10.8433 0.335938 11.0129 0.406175 11.1379 0.5312C11.2629 0.656224 11.3332 0.825793 11.3332 1.0026V13.7646C11.3332 13.8242 11.3173 13.8827 11.2871 13.9341C11.2569 13.9855 11.2134 14.0278 11.1613 14.0567C11.1091 14.0855 11.0502 14.0999 10.9906 14.0982C10.931 14.0966 10.873 14.079 10.8225 14.0473L5.99984 11.0226L1.17717 14.0466C1.12675 14.0783 1.06876 14.0959 1.00924 14.0976C0.949715 14.0992 0.890828 14.0849 0.838701 14.0562C0.786573 14.0274 0.743108 13.9851 0.712826 13.9339C0.682543 13.8826 0.666548 13.8242 0.666504 13.7646V1.0026C0.666504 0.825793 0.736742 0.656224 0.861766 0.5312C0.98679 0.406175 1.15636 0.335938 1.33317 0.335938ZM9.99984 1.66927H1.99984V11.9573L5.99984 9.44994L9.99984 11.9573V1.66927Z" fill="#666666"/>
</svg>
