<svg width="8" height="11" viewBox="0 0 8 11" fill="none" xmlns="http://www.w3.org/2000/svg">
<path d="M0.5 0H7.5C7.63261 0 7.75979 0.0526784 7.85355 0.146447C7.94732 0.240215 8 0.367392 8 0.5V10.0715C8.00006 10.1162 7.98813 10.1601 7.96545 10.1986C7.94277 10.2372 7.91018 10.2689 7.87107 10.2905C7.83196 10.3122 7.78776 10.323 7.74307 10.3217C7.69839 10.3205 7.65485 10.3073 7.617 10.2835L4 8.015L0.383 10.283C0.345184 10.3068 0.301694 10.32 0.257051 10.3212C0.212408 10.3225 0.168243 10.3118 0.129148 10.2902C0.090052 10.2686 0.0574534 10.2369 0.0347414 10.1985C0.0120294 10.16 3.32354e-05 10.1162 0 10.0715V0.5C0 0.367392 0.0526785 0.240215 0.146447 0.146447C0.240215 0.0526784 0.367392 0 0.5 0ZM7 1H1V8.716L4 6.8355L7 8.716V1Z" fill="#222222"/>
</svg>
