<svg width="14" height="12" viewBox="0 0 14 12" fill="none" xmlns="http://www.w3.org/2000/svg">
<path d="M6.66667 8.33073H5.33333C4.23973 8.33031 3.16682 8.62882 2.23058 9.194C1.29435 9.75917 0.530401 10.5695 0.0213343 11.5374C0.00702532 11.3578 -9.15218e-05 11.1776 8.88408e-07 10.9974C8.88408e-07 7.3154 2.98467 4.33073 6.66667 4.33073V0.664062L13.6667 6.33073L6.66667 11.9974V8.33073ZM5.33333 6.9974H8V9.20273L11.5473 6.33073L8 3.45873V5.66406H6.66667C5.90017 5.6632 5.14253 5.82794 4.44559 6.14701C3.74866 6.46608 3.12888 6.93194 2.62867 7.51273C3.48955 7.17154 4.40731 6.99668 5.33333 6.9974Z" fill="#666666"/>
</svg>
