<svg width="10" height="10" viewBox="0 0 10 10" fill="none" xmlns="http://www.w3.org/2000/svg">
<path d="M5.5601 7.51233L3.4606 6.36733C3.1865 6.66037 2.8306 6.86418 2.43914 6.95228C2.04768 7.04038 1.63878 7.0087 1.26556 6.86135C0.892349 6.71401 0.572083 6.45781 0.346387 6.12606C0.120691 5.7943 0 5.40233 0 5.00108C0 4.59984 0.120691 4.20787 0.346387 3.87611C0.572083 3.54436 0.892349 3.28816 1.26556 3.14081C1.63878 2.99347 2.04768 2.96179 2.43914 3.04989C2.8306 3.13799 3.1865 3.3418 3.4606 3.63483L5.5606 2.48983C5.44138 2.01787 5.49838 1.51863 5.72092 1.08569C5.94346 0.652743 6.31626 0.315825 6.76944 0.138085C7.22262 -0.0396549 7.72506 -0.0460134 8.18259 0.120201C8.64013 0.286416 9.02133 0.613792 9.25476 1.04096C9.48818 1.46814 9.5578 1.96578 9.45055 2.44061C9.34331 2.91544 9.06658 3.33485 8.67222 3.62024C8.27786 3.90563 7.79296 4.03739 7.3084 3.99083C6.82385 3.94427 6.3729 3.72259 6.0401 3.36733L3.9401 4.51233C4.0207 4.83301 4.0207 5.16865 3.9401 5.48933L6.0396 6.63433C6.3724 6.27908 6.82335 6.0574 7.3079 6.01084C7.79246 5.96428 8.27736 6.09604 8.67172 6.38143C9.06608 6.66682 9.34281 7.08623 9.45005 7.56106C9.5573 8.03589 9.48768 8.53353 9.25426 8.9607C9.02083 9.38788 8.63963 9.71525 8.18209 9.88147C7.72456 10.0477 7.22212 10.0413 6.76894 9.86358C6.31576 9.68584 5.94296 9.34893 5.72042 8.91598C5.49788 8.48304 5.44088 7.9838 5.5601 7.51183V7.51233ZM2.0001 6.00083C2.26532 6.00083 2.51967 5.89548 2.70721 5.70794C2.89475 5.5204 3.0001 5.26605 3.0001 5.00083C3.0001 4.73562 2.89475 4.48126 2.70721 4.29373C2.51967 4.10619 2.26532 4.00083 2.0001 4.00083C1.73489 4.00083 1.48053 4.10619 1.293 4.29373C1.10546 4.48126 1.0001 4.73562 1.0001 5.00083C1.0001 5.26605 1.10546 5.5204 1.293 5.70794C1.48053 5.89548 1.73489 6.00083 2.0001 6.00083ZM7.5001 3.00083C7.76532 3.00083 8.01967 2.89548 8.20721 2.70794C8.39475 2.5204 8.5001 2.26605 8.5001 2.00083C8.5001 1.73562 8.39475 1.48126 8.20721 1.29373C8.01967 1.10619 7.76532 1.00083 7.5001 1.00083C7.23489 1.00083 6.98053 1.10619 6.793 1.29373C6.60546 1.48126 6.5001 1.73562 6.5001 2.00083C6.5001 2.26605 6.60546 2.5204 6.793 2.70794C6.98053 2.89548 7.23489 3.00083 7.5001 3.00083ZM7.5001 9.00083C7.76532 9.00083 8.01967 8.89548 8.20721 8.70794C8.39475 8.5204 8.5001 8.26605 8.5001 8.00083C8.5001 7.73562 8.39475 7.48126 8.20721 7.29373C8.01967 7.10619 7.76532 7.00083 7.5001 7.00083C7.23489 7.00083 6.98053 7.10619 6.793 7.29373C6.60546 7.48126 6.5001 7.73562 6.5001 8.00083C6.5001 8.26605 6.60546 8.5204 6.793 8.70794C6.98053 8.89548 7.23489 9.00083 7.5001 9.00083Z" fill="#222222"/>
</svg>
