<svg width="10" height="10" viewBox="0 0 10 10" fill="none" xmlns="http://www.w3.org/2000/svg">
<path d="M5.0005 1.26449C6.175 0.20999 7.99 0.24499 9.1215 1.37849C10.2525 2.51249 10.2915 4.31849 9.2395 5.49649L4.9995 9.74249L0.760503 5.49649C-0.291497 4.31849 -0.251997 2.50949 0.878503 1.37849C2.011 0.24649 3.8225 0.20849 5.0005 1.26449V1.26449ZM8.4135 2.08499C7.6635 1.33399 6.4535 1.30349 5.6685 2.00849L5.001 2.60749L4.333 2.00899C3.5455 1.30299 2.338 1.33399 1.586 2.08599C0.841003 2.83099 0.803503 4.02349 1.49 4.81149L5 8.32699L8.51 4.81199C9.197 4.02349 9.1595 2.83249 8.4135 2.08499V2.08499Z" fill="#222222"/>
</svg>
