<svg width="12" height="15" viewBox="0 0 12 15" fill="none" xmlns="http://www.w3.org/2000/svg">
<path d="M6 12.932L9.3 9.63198C9.9526 8.97931 10.397 8.14779 10.577 7.24256C10.7571 6.33733 10.6646 5.39904 10.3114 4.54635C9.95817 3.69366 9.36003 2.96485 8.59261 2.45209C7.82519 1.93933 6.92296 1.66565 6 1.66565C5.07704 1.66565 4.17481 1.93933 3.40739 2.45209C2.63997 2.96485 2.04183 3.69366 1.68861 4.54635C1.33539 5.39904 1.24294 6.33733 1.42297 7.24256C1.603 8.14779 2.04741 8.97931 2.7 9.63198L6 12.932ZM6 14.8173L1.75734 10.5746C0.918228 9.73553 0.346791 8.66643 0.115286 7.50255C-0.11622 6.33866 0.00260456 5.13227 0.456732 4.03591C0.91086 2.93956 1.6799 2.00249 2.66659 1.34321C3.65328 0.683923 4.81332 0.332031 6 0.332031C7.18669 0.332031 8.34672 0.683923 9.33342 1.34321C10.3201 2.00249 11.0891 2.93956 11.5433 4.03591C11.9974 5.13227 12.1162 6.33866 11.8847 7.50255C11.6532 8.66643 11.0818 9.73553 10.2427 10.5746L6 14.8173ZM6 7.66531C6.35362 7.66531 6.69276 7.52484 6.94281 7.27479C7.19286 7.02474 7.33334 6.6856 7.33334 6.33198C7.33334 5.97836 7.19286 5.63922 6.94281 5.38917C6.69276 5.13912 6.35362 4.99865 6 4.99865C5.64638 4.99865 5.30724 5.13912 5.05719 5.38917C4.80715 5.63922 4.66667 5.97836 4.66667 6.33198C4.66667 6.6856 4.80715 7.02474 5.05719 7.27479C5.30724 7.52484 5.64638 7.66531 6 7.66531ZM6 8.99865C5.29276 8.99865 4.61448 8.71769 4.11438 8.2176C3.61429 7.7175 3.33334 7.03922 3.33334 6.33198C3.33334 5.62474 3.61429 4.94646 4.11438 4.44636C4.61448 3.94626 5.29276 3.66531 6 3.66531C6.70725 3.66531 7.38552 3.94626 7.88562 4.44636C8.38572 4.94646 8.66667 5.62474 8.66667 6.33198C8.66667 7.03922 8.38572 7.7175 7.88562 8.2176C7.38552 8.71769 6.70725 8.99865 6 8.99865Z" fill="#767272"/>
</svg>
