<svg width="26" height="26" viewBox="0 0 26 26" fill="none" xmlns="http://www.w3.org/2000/svg">
<circle cx="13" cy="13" r="13" fill="#008B34"/>
<g clip-path="url(#clip0_714_11304)">
<path d="M16.688 13.2096L11.3885 16.7426C11.3509 16.7677 11.3071 16.782 11.2619 16.7842C11.2168 16.7864 11.1719 16.7762 11.132 16.7549C11.0921 16.7335 11.0588 16.7018 11.0356 16.663C11.0123 16.6242 11 16.5798 11 16.5346V9.46862C11 9.4234 11.0123 9.37903 11.0356 9.34024C11.0588 9.30145 11.0921 9.2697 11.132 9.24835C11.1719 9.22701 11.2168 9.21687 11.2619 9.21904C11.3071 9.2212 11.3509 9.23557 11.3885 9.26062L16.688 12.7936C16.7222 12.8165 16.7503 12.8474 16.7697 12.8837C16.7891 12.92 16.7993 12.9605 16.7993 13.0016C16.7993 13.0428 16.7891 13.0833 16.7697 13.1196C16.7503 13.1559 16.7222 13.1868 16.688 13.2096Z" fill="white"/>
</g>
<defs>
<clipPath id="clip0_714_11304">
<rect width="12" height="12" fill="white" transform="translate(7 7)"/>
</clipPath>
</defs>
</svg>
