<svg width="10" height="2" viewBox="0 0 10 2" fill="none" xmlns="http://www.w3.org/2000/svg">
<path d="M1.25 0.25C0.8375 0.25 0.5 0.5875 0.5 1C0.5 1.4125 0.8375 1.75 1.25 1.75C1.6625 1.75 2 1.4125 2 1C2 0.5875 1.6625 0.25 1.25 0.25ZM8.75 0.25C8.3375 0.25 8 0.5875 8 1C8 1.4125 8.3375 1.75 8.75 1.75C9.1625 1.75 9.5 1.4125 9.5 1C9.5 0.5875 9.1625 0.25 8.75 0.25ZM5 0.25C4.5875 0.25 4.25 0.5875 4.25 1C4.25 1.4125 4.5875 1.75 5 1.75C5.4125 1.75 5.75 1.4125 5.75 1C5.75 0.5875 5.4125 0.25 5 0.25Z" fill="white"/>
</svg>
