<svg width="22" height="29" viewBox="0 0 22 29" fill="none" xmlns="http://www.w3.org/2000/svg">
<path d="M0.333984 28.332C0.333984 25.5031 1.45779 22.7899 3.45818 20.7896C5.45857 18.7892 8.17168 17.6654 11.0007 17.6654C13.8296 17.6654 16.5427 18.7892 18.5431 20.7896C20.5435 22.7899 21.6673 25.5031 21.6673 28.332H19.0007C19.0007 26.2103 18.1578 24.1755 16.6575 22.6752C15.1572 21.1749 13.1224 20.332 11.0007 20.332C8.87892 20.332 6.84409 21.1749 5.3438 22.6752C3.84351 24.1755 3.00065 26.2103 3.00065 28.332H0.333984ZM11.0007 16.332C6.58065 16.332 3.00065 12.752 3.00065 8.33203C3.00065 3.91203 6.58065 0.332031 11.0007 0.332031C15.4207 0.332031 19.0007 3.91203 19.0007 8.33203C19.0007 12.752 15.4207 16.332 11.0007 16.332ZM11.0007 13.6654C13.9473 13.6654 16.334 11.2787 16.334 8.33203C16.334 5.38536 13.9473 2.9987 11.0007 2.9987C8.05398 2.9987 5.66732 5.38536 5.66732 8.33203C5.66732 11.2787 8.05398 13.6654 11.0007 13.6654Z" fill="#222222"/>
</svg>
