<svg width="28" height="27" viewBox="0 0 28 27" fill="none" xmlns="http://www.w3.org/2000/svg">
<path d="M7.33268 5.66536V1.66536C7.33268 1.31174 7.47316 0.972604 7.72321 0.722555C7.97325 0.472507 8.31239 0.332031 8.66602 0.332031H19.3327C19.6863 0.332031 20.0254 0.472507 20.2755 0.722555C20.5255 0.972604 20.666 1.31174 20.666 1.66536V5.66536H25.9993C26.353 5.66536 26.6921 5.80584 26.9422 6.05589C27.1922 6.30594 27.3327 6.64508 27.3327 6.9987V25.6654C27.3327 26.019 27.1922 26.3581 26.9422 26.6082C26.6921 26.8582 26.353 26.9987 25.9993 26.9987H1.99935C1.64573 26.9987 1.30659 26.8582 1.05654 26.6082C0.806491 26.3581 0.666016 26.019 0.666016 25.6654V6.9987C0.666016 6.64508 0.806491 6.30594 1.05654 6.05589C1.30659 5.80584 1.64573 5.66536 1.99935 5.66536H7.33268ZM3.33268 20.332V24.332H24.666V20.332H3.33268ZM3.33268 17.6654H24.666V8.33203H3.33268V17.6654ZM9.99935 2.9987V5.66536H17.9993V2.9987H9.99935ZM12.666 13.6654H15.3327V16.332H12.666V13.6654Z" fill="#222222"/>
</svg>
