<svg width="40" height="40" viewBox="0 0 40 40" fill="none" xmlns="http://www.w3.org/2000/svg">
<circle cx="20" cy="20" r="20" fill="#008B34"/>
<g clip-path="url(#clip0_714_11299)">
<path d="M27.376 20.4192L16.777 27.4852C16.7017 27.5353 16.6142 27.5641 16.5239 27.5684C16.4336 27.5727 16.3437 27.5525 16.264 27.5098C16.1843 27.4671 16.1176 27.4036 16.0711 27.326C16.0246 27.2484 16 27.1597 16 27.0692V12.9372C16 12.8468 16.0246 12.7581 16.0711 12.6805C16.1176 12.6029 16.1843 12.5394 16.264 12.4967C16.3437 12.454 16.4336 12.4337 16.5239 12.4381C16.6142 12.4424 16.7017 12.4711 16.777 12.5212L27.376 19.5872C27.4445 19.6329 27.5006 19.6948 27.5395 19.7673C27.5783 19.8399 27.5986 19.9209 27.5986 20.0032C27.5986 20.0855 27.5783 20.1666 27.5395 20.2392C27.5006 20.3117 27.4445 20.3736 27.376 20.4192Z" fill="white"/>
</g>
<defs>
<clipPath id="clip0_714_11299">
<rect width="24" height="24" fill="white" transform="translate(8 8)"/>
</clipPath>
</defs>
</svg>
