<svg width="20" height="18" viewBox="0 0 20 18" fill="none" xmlns="http://www.w3.org/2000/svg">
<path d="M7.828 2L5.828 4H2V16H18V4H14.172L12.172 2H7.828ZM7 0H13L15 2H19C19.2652 2 19.5196 2.10536 19.7071 2.29289C19.8946 2.48043 20 2.73478 20 3V17C20 17.2652 19.8946 17.5196 19.7071 17.7071C19.5196 17.8946 19.2652 18 19 18H1C0.734784 18 0.48043 17.8946 0.292893 17.7071C0.105357 17.5196 0 17.2652 0 17V3C0 2.73478 0.105357 2.48043 0.292893 2.29289C0.48043 2.10536 0.734784 2 1 2H5L7 0ZM10 15C8.54131 15 7.14236 14.4205 6.11091 13.3891C5.07946 12.3576 4.5 10.9587 4.5 9.5C4.5 8.04131 5.07946 6.64236 6.11091 5.61091C7.14236 4.57946 8.54131 4 10 4C11.4587 4 12.8576 4.57946 13.8891 5.61091C14.9205 6.64236 15.5 8.04131 15.5 9.5C15.5 10.9587 14.9205 12.3576 13.8891 13.3891C12.8576 14.4205 11.4587 15 10 15ZM10 13C10.9283 13 11.8185 12.6313 12.4749 11.9749C13.1313 11.3185 13.5 10.4283 13.5 9.5C13.5 8.57174 13.1313 7.6815 12.4749 7.02513C11.8185 6.36875 10.9283 6 10 6C9.07174 6 8.1815 6.36875 7.52513 7.02513C6.86875 7.6815 6.5 8.57174 6.5 9.5C6.5 10.4283 6.86875 11.3185 7.52513 11.9749C8.1815 12.6313 9.07174 13 10 13Z" fill="#767272"/>
</svg>
