<svg width="20" height="20" viewBox="0 0 20 20" fill="none" xmlns="http://www.w3.org/2000/svg">
<path d="M18.824 14.709L20 20L14.709 18.824C13.2604 19.5985 11.6426 20.0025 10 20C4.477 20 0 15.523 0 9.99999C0 4.47699 4.477 -1.14441e-05 10 -1.14441e-05C15.523 -1.14441e-05 20 4.47699 20 9.99999C20.0025 11.6426 19.5985 13.2604 18.824 14.709ZM16.711 14.419L17.061 13.766C17.6801 12.6074 18.0027 11.3136 18 9.99999C18 8.41774 17.5308 6.87102 16.6518 5.55543C15.7727 4.23983 14.5233 3.21445 13.0615 2.60895C11.5997 2.00345 9.99113 1.84502 8.43928 2.15371C6.88743 2.46239 5.46197 3.22431 4.34315 4.34313C3.22433 5.46195 2.4624 6.88742 2.15372 8.43927C1.84504 9.99111 2.00346 11.5996 2.60896 13.0615C3.21447 14.5233 4.23984 15.7727 5.55544 16.6517C6.87103 17.5308 8.41775 18 10 18C11.334 18 12.618 17.675 13.766 17.06L14.419 16.711L17.366 17.366L16.711 14.419Z" fill="#222222"/>
</svg>
