<svg width="14" height="14" viewBox="0 0 14 14" fill="none" xmlns="http://www.w3.org/2000/svg">
<path d="M3.66634 3.66536V0.998698C3.66634 0.821887 3.73658 0.652318 3.8616 0.527293C3.98663 0.402269 4.1562 0.332031 4.33301 0.332031H12.9997C13.1765 0.332031 13.3461 0.402269 13.4711 0.527293C13.5961 0.652318 13.6663 0.821887 13.6663 0.998698V9.66536C13.6663 9.84218 13.5961 10.0117 13.4711 10.1368C13.3461 10.2618 13.1765 10.332 12.9997 10.332H10.333V12.994C10.333 13.3647 10.0337 13.6654 9.66167 13.6654H1.00434C0.916156 13.6655 0.828819 13.6481 0.74733 13.6144C0.66584 13.5807 0.591798 13.5313 0.529442 13.4689C0.467085 13.4066 0.417638 13.3325 0.383932 13.251C0.350225 13.1696 0.33292 13.0822 0.333008 12.994L0.335008 4.3367C0.335008 3.96603 0.634341 3.66536 1.00634 3.66536H3.66634ZM4.99967 3.66536H9.66167C10.0323 3.66536 10.333 3.9647 10.333 4.3367V8.9987H12.333V1.66536H4.99967V3.66536ZM1.66834 4.9987L1.66634 12.332H8.99967V4.9987H1.66834Z" fill="#666666"/>
</svg>
