<svg width="28" height="28" viewBox="0 0 28 28" fill="none" xmlns="http://www.w3.org/2000/svg">
<path d="M13.9993 27.3346C6.63535 27.3346 0.666016 21.3653 0.666016 14.0013C0.666016 6.6373 6.63535 0.667969 13.9993 0.667969C21.3633 0.667969 27.3327 6.6373 27.3327 14.0013C27.3327 21.3653 21.3633 27.3346 13.9993 27.3346ZM13.9993 24.668C16.8283 24.668 19.5414 23.5442 21.5418 21.5438C23.5422 19.5434 24.666 16.8303 24.666 14.0013C24.666 11.1723 23.5422 8.45922 21.5418 6.45883C19.5414 4.45844 16.8283 3.33464 13.9993 3.33464C11.1704 3.33464 8.45726 4.45844 6.45688 6.45883C4.45649 8.45922 3.33268 11.1723 3.33268 14.0013C3.33268 16.8303 4.45649 19.5434 6.45688 21.5438C8.45726 23.5442 11.1704 24.668 13.9993 24.668ZM12.666 19.3346H8.66602V8.66797H12.666V6.0013H15.3327V8.66797H16.666C17.2851 8.66797 17.8919 8.84035 18.4185 9.1658C18.945 9.49125 19.3706 9.9569 19.6474 10.5106C19.9243 11.0643 20.0415 11.6841 19.9859 12.3007C19.9303 12.9172 19.7041 13.5061 19.3327 14.0013C19.7041 14.4965 19.9303 15.0854 19.9859 15.7019C20.0415 16.3185 19.9243 16.9383 19.6474 17.492C19.3706 18.0457 18.945 18.5114 18.4185 18.8368C17.8919 19.1623 17.2851 19.3346 16.666 19.3346H15.3327V22.0013H12.666V19.3346ZM11.3327 15.3346V16.668H16.666C16.8428 16.668 17.0124 16.5977 17.1374 16.4727C17.2624 16.3477 17.3327 16.1781 17.3327 16.0013C17.3327 15.8245 17.2624 15.6549 17.1374 15.5299C17.0124 15.4049 16.8428 15.3346 16.666 15.3346H11.3327ZM11.3327 11.3346V12.668H16.666C16.8428 12.668 17.0124 12.5977 17.1374 12.4727C17.2624 12.3477 17.3327 12.1781 17.3327 12.0013C17.3327 11.8245 17.2624 11.6549 17.1374 11.5299C17.0124 11.4049 16.8428 11.3346 16.666 11.3346H11.3327Z" fill="#222222"/>
</svg>
