<svg width="24" height="28" viewBox="0 0 24 28" fill="none" xmlns="http://www.w3.org/2000/svg">
<path d="M24 8.66797V25.992C24.0012 26.1671 23.968 26.3407 23.9021 26.5029C23.8362 26.6652 23.739 26.8128 23.6161 26.9375C23.4931 27.0622 23.3468 27.1614 23.1855 27.2296C23.0242 27.2977 22.8511 27.3334 22.676 27.3346H1.324C0.973084 27.3346 0.636522 27.1953 0.388262 26.9473C0.140002 26.6993 0.000353389 26.3629 0 26.012V1.99064C0 1.27464 0.598666 0.667969 1.336 0.667969H15.996L24 8.66797ZM21.3333 10.0013H14.6667V3.33464H2.66667V24.668H21.3333V10.0013ZM6.66667 7.33463H10.6667V10.0013H6.66667V7.33463ZM6.66667 12.668H17.3333V15.3346H6.66667V12.668ZM6.66667 18.0013H17.3333V20.668H6.66667V18.0013Z" fill="#222222"/>
</svg>
