<svg width="16" height="22" viewBox="0 0 16 22" fill="none" xmlns="http://www.w3.org/2000/svg">
<path d="M7.99936 22C9.98849 22 11.8961 21.2098 13.3027 19.8033C14.7092 18.3968 15.4994 16.4891 15.4994 14.5C15.4994 13.634 15.2694 12.803 14.9994 12.03C13.3324 13.677 12.0664 14.5 11.1994 14.5C15.1944 7.5 12.9994 4.5 6.99936 0.5C7.49936 5.5 4.20336 7.774 2.86136 9.037C1.76669 10.0667 1.0066 11.4015 0.679644 12.8683C0.35269 14.3352 0.473952 15.8664 1.02771 17.2635C1.58146 18.6606 2.54217 19.8592 3.78527 20.7037C5.02836 21.5483 6.49651 21.9999 7.99936 22ZM8.70936 4.235C11.9504 6.985 11.9664 9.122 9.46236 13.509C8.70136 14.842 9.66436 16.5 11.1994 16.5C11.8874 16.5 12.5834 16.3 13.3184 15.905C13.1005 16.728 12.6946 17.4892 12.1325 18.1286C11.5705 18.768 10.8677 19.2682 10.0794 19.5899C9.2912 19.9115 8.43906 20.0458 7.59012 19.9821C6.74117 19.9184 5.9186 19.6585 5.18717 19.2229C4.45573 18.7873 3.83541 18.1878 3.37505 17.4717C2.91468 16.7556 2.62683 15.9424 2.53418 15.0961C2.44152 14.2498 2.54659 13.3936 2.8411 12.5948C3.1356 11.7961 3.61152 11.0766 4.23136 10.493C4.35736 10.375 4.99636 9.808 5.02436 9.783C5.44836 9.403 5.79736 9.066 6.14236 8.697C7.37236 7.379 8.25636 5.917 8.70836 4.235H8.70936Z" fill="#222222"/>
</svg>
