<svg width="18" height="18" viewBox="0 0 18 18" fill="none" xmlns="http://www.w3.org/2000/svg">
<g clip-path="url(#clip0_702_4051)">
<path d="M9.00075 3.39673C10.7625 1.81498 13.485 1.86748 15.1823 3.56773C16.8788 5.26873 16.9373 7.97774 15.3593 9.74473L8.99925 16.1137L2.64075 9.74473C1.06275 7.97774 1.122 5.26424 2.81775 3.56773C4.5165 1.86974 7.23375 1.81273 9.00075 3.39673ZM9 14.25C7.875 13.1235 10.5525 11.6925 9.375 12.75L9 13.9905L8.99925 14.625C7.818 13.566 10.1274 13.3608 8.99941 14.4888C7.88192 15.6063 2.70525 7.53523 3.735 8.71724L9 13.9905L14.265 8.71798C15.2955 7.53523 10.119 15.3713 9 14.25Z" fill="#F0270B"/>
</g>
<defs>
<clipPath id="clip0_702_4051">
<rect width="18" height="18" fill="white"/>
</clipPath>
</defs>
</svg>
