<svg width="28" height="26" viewBox="0 0 28 26" fill="none" xmlns="http://www.w3.org/2000/svg">
<path d="M3.33274 17.3333H24.6661V2.66667H3.33274V17.3333ZM15.3327 20V22.6667H20.6661V25.3333H7.33274V22.6667H12.6661V20H1.98874C1.81365 19.999 1.64049 19.9634 1.47919 19.8953C1.31788 19.8272 1.1716 19.7279 1.04873 19.6032C0.925851 19.4785 0.828801 19.3307 0.763137 19.1684C0.697474 19.0061 0.664488 18.8324 0.66607 18.6573V1.34267C0.66607 0.601333 1.27274 0 1.98874 0H26.0101C26.7407 0 27.3327 0.598667 27.3327 1.34267V18.6573C27.3327 19.3987 26.7261 20 26.0101 20H15.3327Z" fill="#222222"/>
</svg>
