<svg width="934" height="554" viewBox="0 0 934 554" fill="none" xmlns="http://www.w3.org/2000/svg">
<path d="M843.866 494.986C839.329 489.315 835.926 482.91 833.057 476.305C831.656 473.036 830.322 469.633 829.054 466.297C828.454 464.696 827.786 463.161 827.319 461.56C826.786 459.892 826.585 459.025 827.386 457.423C827.386 456.289 827.853 455.822 828.72 455.956C829.454 455.755 829.921 456.089 830.188 456.956C830.855 456.89 831.523 456.756 832.123 456.69C828.12 444.613 825.518 432.137 824.384 419.527C823.85 413.389 823.65 407.184 823.783 400.979C823.85 398.11 823.983 395.241 824.25 392.305C824.317 391.171 824.184 387.969 824.851 387.035C825.585 386.834 826.252 386.634 826.986 386.501C828.187 385.5 829.121 385.5 829.721 386.567C830.455 387.168 830.922 388.235 831.389 389.036C843.599 409.319 851.739 432.204 855.675 455.489C857.944 468.899 858.811 482.443 858.21 496.054C858.144 497.322 860.145 497.322 860.212 496.054C861.28 469.033 856.809 441.878 847.002 416.658C844.533 410.386 841.797 404.248 838.728 398.243C837.327 395.441 835.793 392.706 834.258 390.037C832.99 387.835 831.723 385.166 829.588 383.699C825.451 380.896 823.049 384.899 822.582 388.569C821.715 395.508 821.581 402.58 821.782 409.586C822.249 425.798 825.051 441.811 830.122 457.157C830.455 458.224 832.123 458.091 832.056 456.89C832.056 454.221 829.054 453.087 826.786 454.221C822.782 456.156 825.051 461.694 826.118 464.629C830.255 475.838 834.725 486.913 842.264 496.321C843.265 497.455 844.666 495.987 843.866 494.986Z" fill="#E8E8E8"/>
<path d="M855.608 445.081C856.142 436.207 857.276 427.4 859.211 418.66C860.145 414.59 861.146 410.52 862.414 406.517C863.014 404.516 863.681 402.514 864.348 400.579C864.682 399.579 865.016 398.578 865.416 397.644C865.549 397.243 865.683 396.843 865.883 396.443C866.15 395.042 867.084 394.241 868.619 393.974C868.485 395.108 870.287 395.308 870.553 394.241C871.888 389.837 882.696 361.482 889.302 366.352C891.236 367.753 891.77 371.023 892.104 373.224C892.638 376.293 893.105 379.429 893.438 382.498C894.039 387.769 894.439 393.04 894.572 398.378C895.173 420.061 891.904 441.879 884.965 462.495C880.962 474.304 875.757 485.58 869.486 496.322C868.819 497.456 870.553 498.457 871.221 497.322C883.831 475.839 891.904 451.953 895.106 427.334C896.707 414.924 897.108 402.381 896.174 389.904C895.707 383.966 895.039 378.028 893.972 372.157C893.371 368.954 891.904 364.217 888.101 363.617C883.097 362.816 879.227 371.089 877.225 374.425C873.556 380.497 870.754 386.969 868.685 393.707C869.352 393.774 870.02 393.907 870.62 393.974C871.02 390.772 867.017 390.571 865.416 392.64C864.215 394.174 863.681 396.443 863.081 398.244C861.947 401.38 860.946 404.582 860.012 407.785C856.476 419.928 854.407 432.404 853.673 445.014C853.54 446.349 855.542 446.349 855.608 445.081Z" fill="#E8E8E8"/>
<path d="M824.251 386.302C838.796 420.262 847.937 456.357 851.273 493.119C851.406 494.387 853.408 494.387 853.274 493.119C849.871 455.957 840.664 419.594 825.986 385.234C825.452 384.1 823.717 385.167 824.251 386.302Z" fill="#E8E8E8"/>
<path d="M823.85 430.269C830.789 433.738 837.194 438.075 842.998 443.146C843.932 444.013 845.4 442.612 844.399 441.745C838.395 436.541 831.923 432.137 824.784 428.534C823.716 428.001 822.649 429.735 823.85 430.269Z" fill="#E8E8E8"/>
<path d="M842.398 410.722C840.53 414.391 839.129 418.261 838.262 422.331C837.995 423.598 839.93 424.132 840.196 422.865C841.064 418.995 842.331 415.259 844.133 411.722C844.733 410.588 842.999 409.587 842.398 410.722Z" fill="#E8E8E8"/>
<path d="M886.033 367.888C881.696 406.652 876.959 446.684 858.078 481.511C857.477 482.646 859.212 483.646 859.812 482.512C878.894 447.351 883.631 407.053 888.035 367.888C888.168 366.621 886.166 366.621 886.033 367.888Z" fill="#E8E8E8"/>
<path d="M861.08 405.852C866.417 418.395 870.354 431.405 872.956 444.749C873.223 446.017 875.157 445.483 874.891 444.215C872.222 430.671 868.152 417.527 862.814 404.851C862.281 403.65 860.613 404.651 861.08 405.852Z" fill="#E8E8E8"/>
<path d="M881.162 415.928C886.166 409.59 891.17 403.251 896.174 396.98C896.974 395.979 895.573 394.578 894.772 395.579C889.768 401.917 884.764 408.255 879.761 414.527C878.96 415.461 880.361 416.929 881.162 415.928Z" fill="#E8E8E8"/>
<path d="M52.0399 486.113C47.7031 481.443 43.2996 476.639 39.7635 471.301C38.0955 468.699 36.561 466.03 35.36 463.162C34.6928 461.56 31.557 453.02 35.8938 454.755C36.9613 455.155 37.4283 453.754 36.8946 453.087C32.4911 447.482 29.5554 440.944 27.0201 434.339C24.6182 428.067 22.283 421.729 20.0813 415.39C17.6794 408.452 15.6111 401.313 14.8105 394.04C14.21 388.302 13.6095 380.429 17.7461 375.692C23.8176 368.82 29.9558 380.163 32.8247 384.433C36.6944 390.17 40.4974 396.042 44.167 401.913C51.4394 413.856 58.0446 426.266 62.9151 439.476C68.4528 454.555 71.5219 470.501 70.788 486.58C70.7213 487.848 72.7229 487.848 72.7896 486.58C74.2574 454.021 60.3131 423.664 43.2996 396.709C39.0963 390.104 34.893 383.432 30.2893 377.094C27.6873 373.557 23.5507 369.888 18.8803 372.223C14.6103 374.291 13.009 379.829 12.6087 384.166C11.8748 392.039 13.4093 400.045 15.5444 407.584C17.9463 416.124 21.2155 424.398 24.2846 432.671C27.1535 440.41 30.3561 447.949 35.4935 454.488C35.8271 453.954 36.1607 453.354 36.4943 452.82C34.7595 452.153 33.225 452.353 31.7572 453.42C31.4903 453.621 31.2234 453.954 31.2901 454.288C32.758 467.765 41.8985 478.107 50.7055 487.581C51.5061 488.515 52.9072 487.114 52.0399 486.113Z" fill="#E8E8E8"/>
<path d="M57.5105 422.664C55.4422 403.983 57.9108 385.235 64.7162 367.688C64.1824 367.821 63.582 367.954 63.0482 368.155C65.1165 370.023 66.5176 372.158 67.3183 374.827C67.5851 375.761 68.9862 375.827 69.2531 374.827C73.79 359.081 80.3953 344.069 89.0688 330.125C88.4683 330.058 87.8678 329.991 87.2674 329.858C92.4715 343.135 95.7407 357.146 96.8082 371.424C97.7423 384.234 98.0759 398.979 90.2697 409.854C89.8694 410.388 90.2697 411.189 90.8702 411.322C96.8749 412.723 95.0735 422.197 94.5398 426.467C93.7391 433.54 92.5382 440.612 91.0036 447.551C88.068 460.961 83.7979 474.105 78.3937 486.715C77.8599 487.916 79.5946 488.917 80.1284 487.716C86.4667 473.038 91.2038 457.692 94.2062 442.013C95.5406 434.807 97.0751 427.201 97.2085 419.862C97.2753 415.659 96.2077 410.388 91.4707 409.321C91.6708 409.788 91.871 410.321 92.0711 410.788C99.8773 399.913 99.7439 385.368 98.9432 372.558C98.0092 357.68 94.6732 343.068 89.2689 329.257C88.9353 328.457 87.9345 328.256 87.4675 328.99C78.7273 343.068 72.0553 358.213 67.4517 374.159C68.1189 374.159 68.7194 374.159 69.3866 374.159C68.4525 371.157 66.9179 368.755 64.5828 366.62C63.9823 366.086 63.1817 366.353 62.9148 367.087C56.0427 384.768 53.5741 403.783 55.6424 422.598C55.6424 423.932 57.6439 423.932 57.5105 422.664Z" fill="#E8E8E8"/>
<path d="M18.4802 375.358C27.7542 393.706 37.2283 411.987 46.102 430.535C54.7755 448.816 62.4482 467.698 66.5848 487.58C66.8517 488.848 68.7866 488.314 68.5197 487.046C64.3831 467.364 56.9105 448.749 48.3037 430.602C39.3633 411.653 29.6223 393.039 20.1482 374.29C19.6144 373.223 17.8797 374.224 18.4802 375.358Z" fill="#E8E8E8"/>
<path d="M87.6687 332.661C86.2676 352.477 80.1294 371.425 75.5925 390.64C71.0556 409.855 67.9198 429.404 66.1851 449.086C66.0517 450.354 68.0532 450.354 68.1867 449.086C69.9881 428.737 73.3241 408.521 78.1279 388.705C82.6648 370.157 88.2692 351.809 89.6703 332.661C89.737 331.327 87.7355 331.327 87.6687 332.661Z" fill="#E8E8E8"/>
<path d="M17.4133 413.589C27.4879 416.992 36.6952 422.196 44.9017 429.001C45.9025 429.802 47.3036 428.401 46.3028 427.6C37.8295 420.595 28.3553 415.257 17.9471 411.654C16.6794 411.187 16.1457 413.122 17.4133 413.589Z" fill="#E8E8E8"/>
<path d="M62.4476 369.29C64.716 381.366 68.052 393.242 72.3888 404.718C72.8558 405.919 74.7907 405.385 74.3236 404.184C69.9869 392.642 66.7176 380.832 64.3825 368.756C64.1156 367.488 62.2474 368.022 62.4476 369.29Z" fill="#E8E8E8"/>
<path d="M69.6542 453.488C76.8599 444.014 84.2658 434.473 94.8074 428.535C95.9417 427.935 94.9409 426.2 93.8066 426.8C82.9981 432.938 75.3254 442.746 67.9195 452.487C67.1856 453.488 68.9203 454.489 69.6542 453.488Z" fill="#E8E8E8"/>
<path d="M763.536 498.593C819.647 498.593 875.824 498.593 931.935 498.593C934.537 498.593 934.537 494.59 931.935 494.59C875.824 494.59 819.647 494.59 763.536 494.59C760.933 494.59 760.933 498.593 763.536 498.593Z" fill="black"/>
<path d="M154.054 485.246C110.019 485.246 65.9844 485.246 21.9496 485.246C19.3475 485.246 19.3475 489.249 21.9496 489.249C65.9844 489.249 110.019 489.249 154.054 489.249C156.589 489.249 156.589 485.246 154.054 485.246Z" fill="black"/>
<path d="M602.541 531.152C663.389 531.152 724.237 531.152 785.085 531.152C802.432 531.152 819.712 531.152 837.06 531.152C839.662 531.152 839.662 527.148 837.06 527.148C776.211 527.148 715.363 527.148 654.515 527.148C637.168 527.148 619.888 527.148 602.541 527.148C600.006 527.148 599.939 531.152 602.541 531.152Z" fill="black"/>
<path d="M746.587 499.661C552.434 495.791 358.28 491.921 164.127 488.052C129.366 487.385 105.08 453.424 115.622 420.332L235.516 43.1001C242.322 21.6832 262.204 7.00493 284.689 6.87149C464.364 5.60383 644.039 4.26944 823.715 3.00177C856.541 2.73489 881.427 32.6919 875.089 64.9174L798.561 457.628C793.824 482.447 771.874 500.195 746.587 499.661Z" fill="#474747" stroke="black" stroke-width="6"/>
<path d="M742.852 496.389C548.698 492.719 354.545 489.117 160.391 485.447C125.631 484.78 101.345 452.755 111.886 421.53L231.781 65.4485C238.587 45.2325 258.469 31.4216 280.953 31.2214C460.629 30.0205 640.304 28.7528 819.979 27.5518C852.805 27.3517 877.692 55.574 871.353 85.998L794.826 456.758C790.089 480.109 768.138 496.856 742.852 496.389Z" fill="white" stroke="black" stroke-width="6"/>
<path d="M792.624 466.7C786.219 480.778 773.876 491.387 758.997 495.523C757.73 495.857 758.263 497.792 759.531 497.458C774.877 493.188 787.753 482.179 794.359 467.701C794.826 466.567 793.158 465.499 792.624 466.7Z" fill="black"/>
<path d="M289.827 21.6151C287.825 21.4149 287.091 19.2799 287.625 17.5452C288.359 15.3434 290.494 14.8764 292.495 15.8772C293.897 16.6111 294.63 18.3458 294.03 19.8804C293.363 21.5483 291.428 22.0821 289.827 21.4816C288.626 21.0146 288.092 22.9495 289.293 23.4165C291.895 24.4173 295.097 23.0829 296.032 20.3474C296.966 17.4117 295.097 14.5428 292.295 13.6755C289.159 12.7414 286.424 14.2092 285.623 17.4785C284.956 20.4808 286.824 23.2831 289.827 23.6166C291.094 23.7501 291.094 21.7485 289.827 21.6151Z" fill="black"/>
<path d="M287.492 20.0131C288.292 22.0814 291.228 22.7486 292.963 21.4809C294.097 20.6136 294.631 18.9456 294.097 17.4778C293.497 15.8765 291.762 14.9424 290.227 15.2093C288.092 15.6096 286.691 18.0782 287.492 20.0131Z" fill="white"/>
<path d="M312.377 21.0174C310.376 20.8173 309.642 18.6822 310.176 16.9475C310.91 14.7458 313.045 14.2788 315.046 15.2795C316.447 16.0135 317.181 17.7482 316.581 19.2827C315.914 20.9507 313.979 21.4844 312.377 20.884C311.176 20.4169 310.643 22.3518 311.844 22.8188C314.446 23.8196 317.648 22.4852 318.582 19.7497C319.516 16.8141 317.648 13.9452 314.846 13.0778C311.71 12.1437 308.975 13.6116 308.174 16.8808C307.507 19.8832 309.375 22.6854 312.377 23.019C313.645 23.1524 313.645 21.1508 312.377 21.0174Z" fill="black"/>
<path fill-rule="evenodd" clip-rule="evenodd" d="M310.043 19.4154C310.843 21.4837 313.779 22.1509 315.514 20.8833C316.648 20.0159 317.182 18.3479 316.648 16.8801C316.047 15.2788 314.313 14.3448 312.778 14.6116C310.643 15.012 309.242 17.4806 310.043 19.4154Z" stroke="black"/>
<path d="M288.493 15.8786C289.427 17.9469 290.495 19.9485 291.763 21.8834C292.43 22.9509 294.165 21.9501 293.497 20.8826C292.296 18.9477 291.229 16.9461 290.228 14.8778C289.694 13.7436 287.96 14.7444 288.493 15.8786Z" fill="black"/>
<path d="M288.693 21.8808C289.627 21.0802 290.494 20.2128 291.428 19.4122C292.229 18.6783 293.029 17.8109 294.03 17.2772C295.164 16.6767 294.164 14.942 293.029 15.5425C292.029 16.0762 291.228 16.9436 290.361 17.7442C289.36 18.6783 288.292 19.6123 287.291 20.5464C286.357 21.3471 287.758 22.7482 288.693 21.8808Z" fill="black"/>
<path d="M536.488 66.9193C530.55 86.0011 524.545 105.15 518.607 124.231C514.938 136.107 523.678 148.117 536.088 148.317C618.886 149.318 701.619 150.252 784.417 151.253C793.491 151.386 801.297 144.848 802.899 135.907C806.435 115.625 810.038 95.3418 813.574 75.0591C815.575 63.7168 806.835 53.3086 795.293 53.3086C714.896 53.5088 634.499 53.7089 554.169 53.9091C546.096 53.9091 538.89 59.1799 536.488 66.9193Z" fill="white" stroke="black" stroke-width="3"/>
<path d="M218.771 332.931C207.228 366.091 195.686 399.25 184.143 432.41C177.004 452.959 193.951 473.909 217.97 474.176C378.23 475.844 538.557 477.579 698.817 479.247C716.431 479.447 731.576 468.171 734.578 452.626C741.517 417.465 748.389 382.237 755.328 347.076C759.198 327.327 742.251 309.312 719.9 309.312C564.244 309.646 408.587 309.98 252.931 310.313C237.252 310.38 223.441 319.521 218.771 332.931Z" fill="white" stroke="black" stroke-width="3"/>
<path d="M561.576 181.209C550.834 213.368 540.092 245.527 529.35 277.685C528.95 278.886 530.885 279.42 531.285 278.219C542.027 246.06 552.769 213.902 563.51 181.743C563.911 180.475 561.976 179.942 561.576 181.209Z" fill="#E8E8E8"/>
<path d="M562.843 181.41C590.732 179.942 618.754 177.673 646.709 177.673C674.531 177.673 702.287 180.075 729.975 182.477C731.243 182.611 731.243 180.609 729.975 180.476C702.287 178.074 674.531 175.739 646.709 175.672C618.754 175.672 590.732 177.94 562.843 179.408C561.575 179.475 561.509 181.476 562.843 181.41Z" fill="#E8E8E8"/>
<path d="M729.641 182.411C722.169 214.303 714.63 246.128 707.157 278.02C706.89 279.288 708.825 279.822 709.092 278.554C716.564 246.662 724.104 214.837 731.576 182.945C731.843 181.744 729.908 181.21 729.641 182.411Z" fill="#E8E8E8"/>
<path d="M530.55 281.154C576.32 278.685 622.156 278.085 667.992 279.486C681.069 279.886 694.079 280.42 707.156 281.154C708.424 281.221 708.424 279.219 707.156 279.152C661.387 276.617 615.551 276.083 569.714 277.484C556.637 277.885 543.627 278.418 530.55 279.152C529.282 279.219 529.216 281.221 530.55 281.154Z" fill="#E8E8E8"/>
<path d="M619.421 277.753C647.977 262.874 680.603 260.672 712.161 258.738C713.428 258.671 713.428 256.669 712.161 256.736C680.269 258.738 647.31 261.006 618.42 276.018C617.219 276.618 618.22 278.353 619.421 277.753Z" fill="#E8E8E8"/>
<path d="M664.99 214.235C668.126 229.514 669.727 245.06 669.794 260.672C669.794 261.94 671.795 261.94 671.795 260.672C671.662 244.859 670.061 229.18 666.925 213.701C666.658 212.434 664.723 212.967 664.99 214.235Z" fill="#E8E8E8"/>
<path d="M664.256 213.9C660.186 219.838 656.183 225.843 652.113 231.781C652.713 231.981 653.381 232.114 653.981 232.314C653.648 226.31 655.182 220.705 658.585 215.768C659.319 214.701 657.584 213.7 656.85 214.767C653.247 219.971 651.579 226.043 651.913 232.314C651.98 233.315 653.181 233.649 653.781 232.848C657.851 226.91 661.854 220.905 665.924 214.967C666.725 213.833 664.99 212.832 664.256 213.9Z" fill="#E8E8E8"/>
<path d="M657.517 213.369C655.248 212.368 652.98 211.901 650.511 212.035C649.044 212.102 643.106 213.903 643.973 211.701C644.307 210.834 646.175 209.7 646.909 209.099C648.31 207.965 649.778 206.897 651.312 206.03C654.715 204.095 658.518 203.161 662.387 203.762C663.655 203.962 664.189 202.027 662.921 201.827C655.182 200.626 647.109 204.829 642.105 210.634C640.77 212.168 640.971 214.303 643.172 214.971C644.373 215.304 645.708 214.837 646.842 214.57C650.111 213.836 653.314 213.569 656.516 214.971C657.65 215.638 658.651 213.903 657.517 213.369Z" fill="#E8E8E8"/>
<path d="M664.19 201.692C666.725 195.687 671.729 191.284 677.934 189.415C677.6 188.882 677.267 188.281 676.933 187.747C674.664 190.683 673.33 193.886 672.863 197.555C672.73 198.823 674.731 198.823 674.865 197.555C675.265 194.419 676.466 191.617 678.334 189.149C678.868 188.415 678.401 187.147 677.333 187.481C670.394 189.549 664.99 194.486 662.188 201.158C661.788 202.359 663.722 202.893 664.19 201.692Z" fill="#E8E8E8"/>
<path d="M674.331 198.756C679.535 195.753 685.673 195.687 690.944 198.556C690.944 197.955 690.944 197.421 690.944 196.821C686.741 198.822 682.737 201.224 678.934 203.893C677.867 204.627 678.868 206.362 679.935 205.628C683.738 202.959 687.741 200.557 691.945 198.556C692.612 198.222 692.545 197.154 691.945 196.821C686.007 193.552 679.135 193.618 673.33 197.021C672.196 197.688 673.197 199.423 674.331 198.756Z" fill="#E8E8E8"/>
<path d="M678.201 205.761C682.537 208.163 686.741 212.1 685.54 217.571C686.14 217.504 686.741 217.437 687.341 217.304C684.539 212.834 679.735 210.298 674.464 210.499C673.197 210.565 673.197 212.567 674.464 212.5C679.068 212.3 683.205 214.435 685.607 218.305C686.007 218.972 687.275 218.972 687.408 218.038C688.742 211.699 684.339 206.829 679.135 203.96C678.067 203.426 677.066 205.161 678.201 205.761Z" fill="#E8E8E8"/>
<path d="M672.729 212.169C675.798 228.181 676.933 244.394 676.065 260.674C675.999 261.941 678 261.941 678.067 260.674C678.934 244.261 677.8 227.781 674.664 211.635C674.397 210.367 672.462 210.901 672.729 212.169Z" fill="#E8E8E8"/>
<path d="M670.528 243.594C672.73 243.861 674.798 243.461 676.8 242.593C678 242.06 676.933 240.325 675.799 240.859C674.131 241.659 672.329 241.859 670.528 241.593C669.26 241.392 669.26 243.394 670.528 243.594Z" fill="#E8E8E8"/>
<path d="M539.224 253.867C550.166 254.535 561.241 254.735 572.116 256.002C577.454 256.603 582.591 258.204 587.862 259.005C593 259.739 598.004 259.005 603.141 258.071C625.625 254.134 648.243 256.269 670.728 258.671C671.995 258.805 671.995 256.803 670.728 256.67C648.977 254.334 626.893 252.066 605.143 255.669C599.004 256.67 593.2 257.871 586.995 256.803C581.991 255.936 577.187 254.601 572.183 254.001C561.308 252.733 550.233 252.533 539.291 251.866C537.956 251.732 537.956 253.734 539.224 253.867Z" fill="#E8E8E8"/>
<path d="M668.192 229.78C668.459 230.914 669.593 231.181 670.661 230.981C672.729 230.648 674.864 229.914 676.866 229.313C678.133 228.98 677.6 227.045 676.332 227.378C675.131 227.712 673.93 228.046 672.729 228.312C672.195 228.446 671.595 228.579 671.061 228.779C670.794 228.846 670.527 228.913 670.26 228.98C669.793 228.913 669.793 228.98 670.127 229.18C669.86 227.979 667.925 228.513 668.192 229.78Z" fill="#E8E8E8"/>
<path d="M583.659 204.294C577.054 202.159 585.66 190.817 590.264 195.888C591.932 197.689 591.865 200.825 590.331 202.693C588.596 204.828 585.594 205.162 583.258 203.827C582.124 203.16 581.123 204.895 582.258 205.562C585.66 207.497 590.264 206.763 592.399 203.36C594.334 200.224 593.8 195.354 590.397 193.419C582.992 189.282 574.118 203.36 583.192 206.296C584.393 206.629 584.926 204.694 583.659 204.294Z" fill="#E8E8E8"/>
<path d="M737.915 188.213C759.465 189.347 780.815 191.882 802.032 195.886C803.3 196.152 803.833 194.218 802.566 193.951C781.215 189.881 759.665 187.279 737.915 186.145C736.647 186.145 736.647 188.146 737.915 188.213Z" fill="#E8E8E8"/>
<path d="M737.581 194.02C758.13 196.221 778.746 198.557 799.229 201.025C800.497 201.159 800.497 199.157 799.229 199.024C778.68 196.555 758.13 194.22 737.581 192.018C736.313 191.885 736.313 193.886 737.581 194.02Z" fill="#E8E8E8"/>
<path d="M736.914 200.024C749.324 202.092 761.801 203.426 774.344 203.827C775.612 203.893 775.612 201.892 774.344 201.825C762.001 201.358 749.658 200.157 737.448 198.089C736.18 197.889 735.647 199.823 736.914 200.024Z" fill="#E8E8E8"/>
<path d="M729.441 235.988C746.321 238.39 763.267 240.392 780.214 241.993C781.482 242.127 781.482 240.125 780.214 239.992C763.401 238.39 746.654 236.389 729.974 234.054C728.707 233.853 728.173 235.788 729.441 235.988Z" fill="#E8E8E8"/>
<path d="M728.173 241.726C741.584 244.061 754.994 245.996 768.472 247.597C769.739 247.73 769.739 245.729 768.472 245.595C755.128 244.061 741.917 242.126 728.707 239.791C727.439 239.524 726.905 241.459 728.173 241.726Z" fill="#E8E8E8"/>
<path d="M726.772 250.198C743.585 253.534 760.532 255.803 777.612 256.87C778.88 256.937 778.88 254.935 777.612 254.869C760.732 253.734 743.919 251.533 727.305 248.263C726.038 247.997 725.504 249.931 726.772 250.198Z" fill="#E8E8E8"/>
<path d="M247.66 336.064C278.351 337.598 309.175 335.997 339.866 335.53C370.557 335.063 401.181 334.929 431.872 334.996C493.454 335.13 554.97 336.264 616.552 337.665C651.246 338.466 685.873 339.4 720.567 340.267C721.835 340.334 721.835 338.332 720.567 338.265C659.052 336.664 597.47 334.996 535.888 333.995C474.306 332.995 412.79 332.528 351.208 333.328C316.715 333.728 282.087 335.797 247.66 333.995C246.326 333.995 246.326 335.997 247.66 336.064Z" fill="#E8E8E8"/>
<path d="M246.459 101.081C250.462 101.681 253.265 98.9456 261.204 93.0743C273.147 84.2006 275.682 83.9338 277.484 84.0672C278.351 84.1339 279.952 84.4008 287.492 90.072C298.5 98.3452 299.168 100.88 302.77 101.081C309.309 101.348 310.243 93.0743 318.049 92.3404C325.121 91.6732 327.323 98.145 336.063 97.8114C342.802 97.6112 346.739 93.4746 347.339 94.342C348.073 95.4762 341.735 104.216 332.594 105.618C325.855 106.618 324.388 102.682 317.849 103.616C308.775 104.95 307.041 113.224 300.369 112.623C296.432 112.223 295.898 109.287 289.093 104.617C285.49 102.148 279.219 97.8781 272.346 97.3444C259.736 96.4103 253.198 108.62 245.592 105.084C241.922 103.416 239.854 98.8789 240.321 98.3452C240.655 97.8114 242.99 100.547 246.459 101.081Z" fill="#282828"/>
<path d="M559.04 66.8537C554.97 85.335 549.967 103.616 544.095 121.63C543.695 122.831 545.63 123.365 546.03 122.164C551.901 104.15 556.905 85.8688 560.975 67.3875C561.242 66.1198 559.307 65.5861 559.04 66.8537Z" fill="#E8E8E8"/>
<path d="M545.295 123.164C552.168 123.964 559.04 123.631 565.978 123.497C573.184 123.297 580.39 123.164 587.662 122.964C602.074 122.63 616.552 122.23 630.963 121.896C632.231 121.896 632.231 119.895 630.963 119.895C616.552 120.228 602.074 120.628 587.662 120.962C580.657 121.162 573.651 121.296 566.646 121.496C559.507 121.696 552.434 122.03 545.295 121.229C544.028 121.029 544.028 123.03 545.295 123.164Z" fill="#E8E8E8"/>
<path d="M570.115 85.467C567.58 97.3431 565.445 109.286 563.643 121.295C563.443 122.563 565.378 123.097 565.578 121.829C567.38 109.82 569.515 97.8768 572.05 86.0008C572.317 84.7331 570.382 84.1994 570.115 85.467Z" fill="#E8E8E8"/>
<path d="M571.65 86.535C575.186 86.7352 578.655 87.0688 582.125 87.7359C581.925 87.3356 581.658 86.9353 581.458 86.535C578.322 97.8106 575.653 109.22 573.451 120.695C573.184 121.963 575.119 122.497 575.386 121.229C577.588 109.753 580.257 98.3443 583.392 87.0688C583.526 86.6017 583.259 85.9345 582.725 85.8678C579.056 85.2006 575.453 84.8003 571.717 84.6001C570.315 84.4667 570.315 86.4683 571.65 86.535Z" fill="#E8E8E8"/>
<path d="M588.863 96.8101C587.863 104.95 586.528 112.956 584.86 120.963C584.593 122.23 586.528 122.764 586.795 121.496C588.53 113.357 589.864 105.083 590.865 96.8101C590.998 95.5425 588.997 95.5425 588.863 96.8101Z" fill="#E8E8E8"/>
<path d="M589.864 96.9449C593.6 96.8115 597.403 96.8782 601.139 97.1451C600.806 96.7447 600.472 96.2777 600.205 95.8774C598.737 103.817 597.47 111.757 596.402 119.763C596.202 121.031 598.204 121.031 598.404 119.763C599.471 111.957 600.672 104.217 602.14 96.4111C602.274 95.7439 601.873 95.2102 601.206 95.1435C597.47 94.8766 593.667 94.8766 589.93 94.9433C588.529 94.9433 588.529 96.9449 589.864 96.9449Z" fill="#E8E8E8"/>
<path d="M613.215 78.6623C610.88 92.6067 608.145 106.551 605.142 120.362C604.876 121.63 606.81 122.163 607.077 120.896C610.08 107.085 612.815 93.1405 615.15 79.1961C615.417 77.9284 613.482 77.3947 613.215 78.6623Z" fill="#E8E8E8"/>
<path d="M614.816 77.6609C614.816 77.7944 614.816 77.8611 614.816 77.9945C614.816 78.5283 615.283 78.9953 615.817 78.9953C616.351 78.9953 616.818 78.5283 616.818 77.9945C616.818 77.8611 616.818 77.7944 616.818 77.6609C616.818 77.1272 616.351 76.6602 615.817 76.6602C615.283 76.7269 614.816 77.1272 614.816 77.6609Z" fill="#E8E8E8"/>
<path d="M615.284 79.328C618.353 79.9952 621.289 80.3288 624.425 80.2621C624.091 79.8618 623.758 79.3948 623.491 78.9944C620.889 92.9388 618.487 106.95 616.218 120.961C616.018 122.229 617.953 122.762 618.153 121.495C620.422 107.484 622.823 93.4726 625.425 79.5282C625.559 78.9277 625.159 78.2605 624.491 78.2605C621.556 78.2605 618.754 77.9937 615.885 77.3932C614.55 77.1263 614.016 78.9944 615.284 79.328Z" fill="#E8E8E8"/>
<path d="M645.775 74.7931C668.46 74.5262 691.077 74.6596 713.762 75.2601C715.03 75.2601 715.03 73.2585 713.762 73.2585C691.077 72.7248 668.46 72.5913 645.775 72.7915C644.507 72.7915 644.507 74.7931 645.775 74.7931Z" fill="#E8E8E8"/>
<path d="M647.31 82.9327C661.388 83.8667 675.532 83.6666 689.61 82.3322C690.878 82.1987 690.878 80.1972 689.61 80.3306C675.532 81.665 661.388 81.8651 647.31 80.9311C646.042 80.8644 646.042 82.8659 647.31 82.9327Z" fill="#E8E8E8"/>
<path d="M644.24 93.0052C663.588 92.6716 682.937 93.0052 702.286 94.006C703.553 94.0727 703.553 92.0711 702.286 92.0044C682.937 90.9369 663.588 90.6033 644.24 91.0036C642.972 91.0036 642.972 93.0052 644.24 93.0052Z" fill="#E8E8E8"/>
<path d="M748.056 123.966C741.251 123.098 737.982 116.293 736.047 110.488C734.245 105.017 733.578 99.2794 735.647 93.8084C739.249 84.2009 749.057 76.4614 758.932 74.2597C769.206 71.9245 779.615 77.3955 784.552 86.536C789.756 96.1436 787.955 108.487 781.883 117.227C774.411 127.969 758.665 129.17 747.723 123.499C746.589 122.898 745.588 124.633 746.722 125.233C757.197 130.638 771.675 130.371 780.549 121.897C789.222 113.624 792.024 98.8791 787.488 87.9371C783.151 77.5956 772.209 70.3899 760.867 71.8578C749.658 73.3256 738.382 81.8657 734.112 92.3406C731.243 99.4796 732.444 106.952 735.246 113.891C737.648 119.762 741.451 125.1 748.123 125.967C749.324 126.101 749.324 124.099 748.056 123.966Z" fill="#E8E8E8"/>
<path d="M750.858 76.9279C753.994 85.0009 756.863 93.2074 759.599 101.481C759.999 102.682 761.934 102.148 761.533 100.947C758.798 92.6736 755.929 84.5339 752.793 76.3941C752.326 75.2599 750.391 75.7269 750.858 76.9279Z" fill="#E8E8E8"/>
<path d="M761.666 102.614C769.539 97.1431 777.345 91.472 784.951 85.6674C785.952 84.8668 784.951 83.1321 783.95 83.9327C776.278 89.7373 768.538 95.4084 760.665 100.879C759.598 101.613 760.599 103.348 761.666 102.614Z" fill="#E8E8E8"/>
<path d="M761.333 102.682C770.273 102.281 779.08 100.813 787.687 98.278C788.888 97.9445 788.421 96.0096 787.153 96.3432C778.746 98.8118 770.14 100.28 761.333 100.613C760.065 100.747 760.065 102.748 761.333 102.682Z" fill="#E8E8E8"/>
<path d="M759.732 102.012C754.395 108.884 749.124 115.756 743.786 122.628C742.986 123.629 744.72 124.63 745.521 123.629C750.858 116.757 756.129 109.885 761.467 103.013C762.267 102.012 760.533 101.011 759.732 102.012Z" fill="#E8E8E8"/>
<path d="M248.995 332.662C247.327 332.195 248.328 329.994 249.062 329.26C249.862 328.459 251.864 328.526 252.931 328.526C254.866 328.459 256.801 328.526 258.803 328.459C262.806 328.459 266.809 328.392 270.812 328.392C278.819 328.326 286.825 328.326 294.831 328.259C310.644 328.192 326.389 328.059 342.202 327.992C374.027 327.792 405.786 327.658 437.611 327.592C500.994 327.392 564.311 327.392 627.694 327.725C645.041 327.859 662.455 327.859 679.802 328.593C688.409 328.926 697.016 329.46 705.622 330.261C709.893 330.661 714.229 331.128 718.499 331.662C719.9 331.862 721.302 331.995 722.703 332.262C723.837 332.462 724.504 332.262 724.904 333.33C725.972 335.865 722.569 338.467 720.501 338.6C719.233 338.667 719.233 340.669 720.501 340.602C724.971 340.268 728.107 335.732 726.439 331.461C726.305 331.128 726.105 330.794 725.772 330.794C693.947 326.057 661.721 326.057 629.629 325.857C596.47 325.657 563.377 325.59 530.217 325.523C463.765 325.523 397.245 325.79 330.793 326.124C312.112 326.257 293.43 326.324 274.749 326.458C270.278 326.458 265.875 326.524 261.405 326.524C257.669 326.524 253.265 325.924 249.662 326.991C246.193 327.992 243.924 333.463 248.461 334.731C249.662 334.931 250.196 332.996 248.995 332.662Z" fill="#E8E8E8"/>
<path d="M244.057 344.405C237.385 368.49 229.245 392.176 219.571 415.261C219.104 416.461 221.039 416.995 221.506 415.794C231.18 392.709 239.32 369.024 245.992 344.938C246.326 343.671 244.391 343.137 244.057 344.405Z" fill="#E8E8E8"/>
<path d="M244.725 346.406C261.872 348.475 279.552 347.074 296.766 346.873C298.034 346.873 298.034 344.872 296.766 344.872C279.552 345.139 261.872 346.473 244.725 344.405C243.391 344.271 243.457 346.273 244.725 346.406Z" fill="#E8E8E8"/>
<path d="M294.631 346.74C288.96 367.69 282.955 388.507 276.617 409.323C276.216 410.591 278.151 411.058 278.552 409.857C284.89 389.107 290.895 368.224 296.566 347.274C296.899 346.007 294.965 345.473 294.631 346.74Z" fill="#E8E8E8"/>
<path d="M220.506 416.262C229.914 416.195 239.255 416.129 248.662 416.062C253.266 416.062 257.803 415.995 262.406 415.995C266.476 415.995 270.546 416.129 274.549 415.194C275.817 414.928 275.283 412.993 274.015 413.26C269.812 414.26 265.409 413.993 261.072 413.993C256.468 413.993 251.931 414.06 247.328 414.06C238.387 414.127 229.447 414.194 220.506 414.194C219.239 414.26 219.239 416.262 220.506 416.262Z" fill="#E8E8E8"/>
<path d="M305.105 347.206C350.207 345.938 395.376 346.005 440.479 347.472C441.746 347.539 441.746 345.538 440.479 345.471C395.376 344.003 350.207 343.87 305.105 345.204C303.837 345.204 303.837 347.206 305.105 347.206Z" fill="#E8E8E8"/>
<path d="M303.237 358.951C329.391 358.885 355.545 358.885 381.766 358.818C383.034 358.818 383.034 356.816 381.766 356.816C355.612 356.883 329.458 356.883 303.237 356.95C301.903 356.95 301.903 358.951 303.237 358.951Z" fill="#E8E8E8"/>
<path d="M276.35 413.925C277.551 411.923 278.418 409.788 278.885 407.587C279.152 406.319 277.217 405.785 276.95 407.053C276.483 409.121 275.749 411.123 274.615 412.924C273.948 413.992 275.682 414.993 276.35 413.925Z" fill="#E8E8E8"/>
<path d="M526.681 353.08C521.343 378.567 516.206 404.054 511.202 429.541C510.935 430.808 512.87 431.342 513.137 430.074C518.141 404.588 523.278 379.101 528.616 353.614C528.883 352.346 526.948 351.813 526.681 353.08Z" fill="#E8E8E8"/>
<path d="M511.602 431.206C539.024 431.94 566.379 432.674 593.8 433.408C620.888 434.142 647.977 435.276 675.065 435.276C676.332 435.276 676.332 433.275 675.065 433.275C647.977 433.275 620.888 432.074 593.8 431.406C566.379 430.673 539.024 429.939 511.602 429.205C510.334 429.138 510.334 431.14 511.602 431.206Z" fill="#E8E8E8"/>
<path d="M513.604 431.006C521.877 422.066 530.15 413.059 538.423 404.118C537.956 404.118 537.489 404.118 537.022 404.118C539.758 407.521 542.96 410.323 546.697 412.592C547.831 413.259 548.832 411.524 547.697 410.857C544.094 408.722 541.025 405.986 538.423 402.717C538.09 402.317 537.356 402.384 537.022 402.717C528.749 411.658 520.476 420.665 512.203 429.605C511.335 430.539 512.736 431.94 513.604 431.006Z" fill="#E8E8E8"/>
<path d="M547.231 411.924C556.104 401.449 565.045 391.041 573.918 380.566C574.719 379.565 573.318 378.164 572.517 379.165C563.644 389.64 554.703 400.048 545.83 410.523C544.962 411.457 546.363 412.858 547.231 411.924Z" fill="#E8E8E8"/>
<path d="M572.517 379.566C574.319 381.968 576.12 384.303 577.922 386.705C578.322 387.238 578.922 387.372 579.523 386.905C587.663 380.233 595.602 373.227 603.275 366.022C604.209 365.154 602.808 363.753 601.874 364.621C594.201 371.826 586.261 378.832 578.122 385.504C578.655 385.57 579.189 385.637 579.723 385.704C577.922 383.302 576.12 380.967 574.319 378.565C573.451 377.497 571.717 378.498 572.517 379.566Z" fill="#E8E8E8"/>
<path d="M601.14 366.89C612.282 375.697 623.024 384.971 633.432 394.579C634.366 395.446 635.768 394.045 634.833 393.178C624.425 383.503 613.683 374.296 602.541 365.489C601.541 364.688 600.139 366.09 601.14 366.89Z" fill="#E8E8E8"/>
<path d="M634.632 394.31C648.376 385.569 658.251 372.092 671.661 362.885C672.729 362.151 671.728 360.416 670.66 361.15C657.25 370.357 647.375 383.835 633.631 392.575C632.564 393.242 633.564 394.977 634.632 394.31Z" fill="#E8E8E8"/>
<path d="M659.986 364.954C664.19 364.22 668.259 363.153 672.329 361.885C671.929 361.485 671.529 361.084 671.128 360.684C670.394 364.02 669.727 367.356 668.993 370.692C668.726 371.96 670.661 372.493 670.928 371.226C671.662 367.89 672.329 364.554 673.063 361.218C673.197 360.484 672.596 359.75 671.862 360.017C667.792 361.285 663.723 362.352 659.519 363.086C658.252 363.286 658.785 365.221 659.986 364.954Z" fill="#E8E8E8"/>
<path d="M551.234 358.349C548.899 382.168 546.497 405.987 544.162 429.806C544.028 431.073 546.03 431.073 546.163 429.806C548.498 405.987 550.9 382.168 553.235 358.349C553.302 357.082 551.301 357.082 551.234 358.349Z" fill="#E8E8E8"/>
<path d="M580.857 354.148C578.388 379.701 576.386 405.322 574.919 430.942C574.852 432.209 576.853 432.209 576.92 430.942C578.388 405.322 580.39 379.701 582.858 354.148C582.925 352.813 580.923 352.88 580.857 354.148Z" fill="#E8E8E8"/>
<path d="M636.768 353.412C634.166 380.099 632.298 406.787 631.164 433.608C631.097 434.876 633.099 434.876 633.165 433.608C634.3 406.854 636.168 380.099 638.77 353.412C638.903 352.144 636.902 352.144 636.768 353.412Z" fill="#E8E8E8"/>
<path d="M603.342 343.673C601.608 373.43 599.873 403.12 598.138 432.876C598.072 434.144 600.073 434.144 600.14 432.876C601.875 403.12 603.609 373.43 605.344 343.673C605.411 342.338 603.409 342.338 603.342 343.673Z" fill="#E8E8E8"/>
<path d="M395.377 358.618C408.921 359.819 422.465 356.816 436.009 358.484C437.277 358.618 437.277 356.616 436.009 356.483C422.465 354.815 408.921 357.817 395.377 356.616C394.043 356.549 394.11 358.551 395.377 358.618Z" fill="#E8E8E8"/>
<path d="M185.278 238.255C208.896 234.786 231.648 244.26 252.598 254.135C272.013 263.342 291.228 272.749 312.779 275.485C358.815 281.223 402.916 261.874 446.217 249.664C471.637 242.525 497.992 237.522 524.479 240.857C525.747 240.991 525.747 238.989 524.479 238.856C477.575 232.918 433.274 252.667 389.106 264.876C366.688 271.081 343.469 275.752 320.118 274.217C296.699 272.683 276.083 263.208 255.2 253.267C233.249 242.792 209.63 232.718 184.744 236.387C183.476 236.521 184.077 238.456 185.278 238.255Z" fill="#E8E8E8"/>
<path d="M311.644 256.469C370.424 259.605 424.867 233.384 481.111 220.774C497.324 217.171 513.804 214.636 530.484 214.302C531.751 214.302 531.751 212.301 530.484 212.301C471.771 213.635 418.062 240.657 360.95 250.998C344.67 253.934 328.191 255.402 311.644 254.534C310.376 254.334 310.376 256.336 311.644 256.469Z" fill="#E8E8E8"/>
<path d="M198.555 188.215C225.176 190.083 249.462 201.959 274.015 211.233C298.968 220.64 324.988 225.911 351.676 225.244C366.955 224.844 382.167 222.642 396.978 218.772C398.246 218.439 397.712 216.504 396.445 216.837C369.557 223.91 341.335 225.244 313.913 220.507C287.759 215.97 264.207 204.561 239.454 195.687C226.244 190.95 212.633 187.214 198.555 186.28C197.221 186.146 197.287 188.148 198.555 188.215Z" fill="#E8E8E8"/>
<path d="M379.564 59.9123C379.03 63.2483 378.163 66.5176 376.962 69.7201C376.695 70.3873 377.362 70.9878 377.896 70.9878C420.396 72.8559 462.897 73.2562 505.397 72.122C506.665 72.0553 506.665 70.0537 505.397 70.1204C462.897 71.2546 420.33 70.921 377.896 68.9862C378.23 69.3865 378.563 69.8535 378.83 70.2538C380.031 67.0513 380.899 63.8488 381.432 60.4461C381.699 59.1784 379.764 58.6447 379.564 59.9123Z" fill="#E8E8E8"/>
<path d="M380.899 60.6477C423.666 61.1815 466.367 61.7153 509.134 62.249C510.401 62.249 510.401 60.2474 509.134 60.2474C466.367 59.7137 423.666 59.1799 380.899 58.6462C379.631 58.5794 379.631 60.581 380.899 60.6477Z" fill="#E8E8E8"/>
<path d="M508.933 61.0499C507.599 64.1858 506.598 67.455 506.064 70.8577C505.864 72.1254 507.799 72.6591 507.999 71.3914C508.533 68.1889 509.4 65.0531 510.668 62.0507C511.135 60.8498 509.4 59.849 508.933 61.0499Z" fill="#E8E8E8"/>
<path d="M36.2938 443.953C24.8848 446.689 13.409 449.424 2 452.16C7.93803 489.656 12.6084 508.337 15.8776 508.07C18.6798 507.87 20.4813 493.859 21.2819 466.037C27.6202 463.836 33.9586 461.7 40.2969 459.499C38.9625 454.361 37.6282 449.157 36.2938 443.953Z" fill="#161616" stroke="#161616" stroke-width="3"/>
<path d="M114.288 304.175C112.82 308.578 110.618 315.584 108.35 324.457C103.613 342.939 103.413 350.812 98.6088 374.297C92.871 402.252 89.9353 407.056 88.0672 409.791C79.5938 421.934 67.8512 427.472 61.4461 430.474C45.9672 437.747 31.5559 438.414 23.0158 438.08C22.6822 442.017 22.3486 451.625 28.0864 461.299C30.9554 466.103 34.3581 469.372 36.9601 471.44C45.5669 471.907 60.3786 471.574 77.0585 465.102C84.1974 462.366 102.412 455.027 116.289 436.813C126.965 422.802 129.9 409.124 133.169 393.779C139.508 364.222 131.635 359.752 139.508 334.665C144.245 319.453 149.716 311.981 145.846 306.376C141.243 299.504 126.764 301.306 114.288 304.175Z" fill="#4C4C4C"/>
<path opacity="0.09" d="M115.09 304.242C114.423 311.381 113.422 321.256 112.021 332.998C110.753 343.34 109.352 354.549 107.084 367.626C103.147 390.043 101.146 401.252 96.8756 410.593C93.1393 418.733 85.9336 433.811 69.3872 445.22C52.1736 457.03 34.3595 458.164 26.4199 458.231C25.4858 456.096 24.5517 453.36 23.9513 450.224C23.0839 445.687 23.0839 441.751 23.3508 438.815C28.4882 438.882 35.5605 438.482 43.7669 436.68C58.0449 433.478 67.5858 427.673 70.0544 426.139C76.1258 422.336 82.4642 418.399 87.6683 410.66C91.2044 405.455 92.6722 400.718 95.0742 390.844C98.6103 376.299 100.412 369.093 101.88 358.418C103.481 346.075 107.017 328.061 115.09 304.242Z" fill="#3D3D3D"/>
<path opacity="0.12" d="M23.4837 438.614C23.2168 441.55 23.0834 445.553 24.0175 450.157C24.6846 453.56 25.6854 456.362 26.6195 458.564C35.7601 456.629 64.5161 449.29 82.3302 423.002C87.601 415.196 90.7368 407.523 92.6717 400.918C90.8703 405.121 87.7345 411.259 82.1968 417.198C72.6559 427.406 61.7139 431.142 53.841 433.811C47.1691 436.146 36.7609 438.815 23.4837 438.614Z" fill="#3D3D3D"/>
<path d="M109.418 505.199C104.214 519.544 99.0098 533.889 93.8057 548.3C130.368 552.57 148.983 553.17 149.65 549.968C150.184 547.499 139.375 542.629 117.358 535.49C120.36 526.616 123.429 517.742 126.431 508.869C120.76 507.668 115.089 506.4 109.418 505.199Z" fill="#161616" stroke="#161616" stroke-width="3"/>
<path d="M163.661 311.779C164.395 321.654 165.062 335.131 164.928 351.01C164.595 394.845 158.657 427.737 156.922 436.678C152.452 460.096 144.712 490.32 130.768 524.08C126.365 524.28 115.489 524.147 104.614 517.342C97.9422 513.138 93.8056 508.068 91.5371 504.665C95.607 496.925 100.611 486.717 105.481 474.241C114.088 452.223 117.825 434.676 120.226 423.134C125.631 397.18 128.366 384.236 126.164 370.359C124.029 357.215 120.56 354.947 121.094 343.738C121.227 341.269 122.895 312.513 140.909 307.042C150.183 304.307 159.391 309.11 163.661 311.779Z" fill="#4C4C4C"/>
<path opacity="0.14" d="M147.848 306.776C153.786 309.311 151.851 325.991 151.317 330.394C144.178 393.244 153.986 359.417 145.379 398.181C133.57 451.423 117.624 502.597 112.019 520.211C110.685 520.211 108.817 520.078 106.815 519.144C104.947 518.276 104.547 517.142 102.278 515.341C99.8097 513.406 98.9424 513.539 97.0742 512.205C95.4062 511.004 93.3379 508.869 91.8701 504.932C95.3395 498.127 99.4761 489.387 103.679 478.845C109.017 465.501 111.953 455.36 115.155 444.418C115.155 444.418 125.163 409.924 126.965 383.57C127.298 378.299 127.031 374.696 126.631 372.094C126.03 367.957 125.163 365.889 123.829 360.952C123.495 359.684 121.627 352.478 121.026 347.074C119.359 331.128 127.832 318.318 131.835 313.715C133.236 312.047 135.104 310.245 137.773 308.844C138.774 308.377 144.578 305.375 147.848 306.776Z" fill="#3D3D3D"/>
<path opacity="0.11" d="M132.569 415.329C131.435 431.542 127.632 436.346 116.557 476.177C111.686 493.658 108.083 508.002 105.748 517.21C103.88 516.476 101.545 515.275 99.1429 513.407C95.5401 510.604 93.4051 507.535 92.2041 505.4C95.5401 498.528 100.01 488.72 104.347 476.511C106.082 471.707 107.216 468.037 108.283 464.701C123.495 415.93 125.897 401.118 126.631 390.977C127.232 382.37 126.765 375.431 126.631 373.229C125.964 364.022 124.363 357.684 124.363 357.684C124.363 357.684 134.771 383.838 132.569 415.329Z" fill="#3D3D3D"/>
<path d="M48.2374 281.956C48.3708 281.756 49.038 281.822 50.3724 281.956C52.6408 282.156 53.3748 282.489 54.8426 282.623C56.2437 282.69 58.1118 282.823 58.6456 281.956C59.3795 280.821 57.0443 278.62 53.7751 273.883C48.1706 265.876 48.4375 263.074 48.9046 261.806C49.038 261.473 49.4383 260.205 50.3057 260.005C51.4399 259.738 52.7076 261.273 53.9085 262.807C55.9101 265.276 56.7107 267.211 56.9109 267.077C57.3112 266.944 54.976 261.94 55.5098 255.802C55.6432 254.134 55.9101 251.732 57.111 251.398C58.1786 251.065 59.7798 252.399 61.0475 254.534C61.0475 254.267 61.3811 250.598 62.6488 250.331C63.6495 250.131 64.7838 252.065 65.918 253.934C66.8521 255.468 67.4526 256.869 67.7861 257.803C67.7194 255.935 68.7202 254.401 70.1213 253.934C71.6559 253.466 73.057 254.667 73.1237 254.734C74.6582 256.135 74.5248 258.604 74.5248 259.471C74.3914 263.274 74.7917 269.679 75.659 279.02C77.3937 278.353 79.9291 277.152 82.7313 275.284C85.6002 273.349 88.6026 270.814 96.0084 261.94C98.8774 258.47 100.345 256.736 102.881 253.333C112.021 241.123 117.425 233.918 122.896 223.71C124.631 220.44 127.433 214.903 133.238 209.965C135.106 208.364 138.776 205.362 140.911 206.496C142.445 207.297 142.579 209.832 142.512 213.568C142.445 221.708 142.378 225.711 140.977 231.249C137.775 244.059 131.837 252.999 130.502 255.001C125.232 262.74 119.961 267.211 113.155 273.015C106.083 279.02 100.212 283.957 90.9378 287.694C84.8663 290.095 80.0625 290.963 74.9918 291.897C66.5852 293.365 62.2484 294.099 57.9117 292.23C51.7068 289.562 47.5035 282.956 48.2374 281.956Z" fill="white"/>
<path d="M140.643 205.562C133.438 206.562 129.168 213.301 125.298 218.839C120.361 225.911 115.69 233.183 110.886 240.322C106.083 247.528 101.079 254.6 95.4076 261.205C92.6721 264.341 89.8699 267.41 86.8008 270.213C83.3981 273.415 79.6618 277.085 75.1916 278.619C73.9906 279.02 74.5244 280.954 75.7254 280.554C82.7309 278.219 88.6689 271.547 93.5394 266.276C99.1439 260.205 104.148 253.599 108.885 246.794C113.689 239.855 118.292 232.716 122.963 225.711C127.366 219.172 132.57 208.697 141.177 207.496C142.445 207.296 141.911 205.428 140.643 205.562Z" fill="black"/>
<path d="M77.5276 292.964C86.0677 292.163 93.2734 288.227 100.412 283.69C107.485 279.22 114.223 274.082 120.228 268.211C127.967 260.738 134.506 251.865 138.843 241.923C143.113 231.982 145.114 221.107 143.713 210.298C143.58 209.031 141.578 209.031 141.712 210.298C143.98 228.379 136.774 246.327 125.165 260.071C119.961 266.209 113.89 271.614 107.485 276.417C98.6777 282.956 88.6698 289.961 77.4609 291.029C76.26 291.096 76.26 293.097 77.5276 292.964Z" fill="black"/>
<path d="M77.5271 290.895C73.5907 290.828 69.7877 291.762 65.918 292.029C61.4478 292.363 57.7115 291.028 54.0419 288.56C52.5741 287.559 50.9728 286.358 50.0387 284.757C48.1039 281.354 52.107 283.355 53.5082 283.756C55.7766 284.423 57.8449 284.156 59.5796 282.621C60.5804 281.754 59.1126 280.353 58.1785 281.22C55.1761 283.889 49.5717 277.951 47.5701 281.354C46.0356 283.956 49.5717 287.692 51.3064 289.093C54.3088 291.562 57.9784 293.563 61.9148 294.031C67.1189 294.631 72.323 292.83 77.5271 292.963C78.7948 292.896 78.7948 290.895 77.5271 290.895Z" fill="black"/>
<path d="M59.7134 281.487C58.379 277.017 55.3766 273.548 52.9747 269.611C52.6411 269.078 48.6379 261.805 49.9723 261.205C52.3075 260.137 55.6435 266.876 56.1105 268.21C56.5108 269.411 58.4457 268.878 58.0454 267.677C56.9779 264.607 55.1097 261.739 52.3075 259.87C50.8397 258.87 48.7047 258.136 48.0375 260.404C47.1701 263.473 49.4386 267.61 50.9731 270.145C53.375 274.082 56.5108 277.484 57.8452 282.021C58.1788 283.289 60.1137 282.755 59.7134 281.487Z" fill="black"/>
<path d="M58.6461 267.61C58.0457 265.141 57.245 262.606 56.8447 260.071C56.5778 258.536 56.5111 257.002 56.6446 255.467C56.8447 253.466 57.245 251.464 58.8463 253.799C61.3149 257.469 62.1156 262.473 63.3165 266.609C63.6501 267.877 65.585 267.343 65.2514 266.075C64.2506 262.539 63.4499 258.803 61.9821 255.4C61.2482 253.732 59.5802 249.996 57.245 249.996C54.8431 249.996 54.7764 253.732 54.643 255.4C54.3094 259.737 55.6438 263.874 56.7113 268.01C56.9782 269.411 58.913 268.878 58.6461 267.61Z" fill="black"/>
<path d="M63.3164 258.137C62.9828 256.736 62.3157 254.401 62.8494 253C63.8502 250.398 65.318 255.068 65.7183 256.069C67.1862 259.605 67.9868 263.341 68.187 267.144C68.2537 268.412 70.2553 268.412 70.1885 267.144C69.9217 263.475 69.3212 259.938 68.0535 256.536C67.3196 254.467 66.2521 250.798 64.2505 249.664C59.7136 247.062 60.9813 257.07 61.3149 258.738C61.6485 259.938 63.5833 259.405 63.3164 258.137Z" fill="black"/>
<path d="M70.0552 260.473C69.9885 259.805 69.5215 256.203 70.3221 255.535C72.5239 253.6 73.1243 257.137 73.3912 258.204C73.8582 260.473 73.7915 263.008 73.9917 265.343C74.3253 270.147 74.6589 274.884 74.9925 279.688C75.0592 280.955 77.0608 280.955 76.9941 279.688C76.6605 274.884 76.3269 270.147 75.9933 265.343C75.7931 262.007 76.06 257.604 74.3253 254.601C73.3912 253 71.7899 251.532 69.9218 252.733C67.5199 254.334 67.8535 258.604 68.1871 261.006C68.3205 262.274 70.2554 261.74 70.0552 260.473Z" fill="black"/>
<path opacity="0.09" d="M141.378 207.898C141.045 207.898 141.312 213.169 139.243 220.508C137.642 226.113 135.04 231.45 126.633 242.526C118.894 252.734 113.289 260.14 103.548 268.813C92.8733 278.354 87.5358 283.091 80.1967 284.893C64.3174 288.829 49.7059 279.688 48.3048 282.758C47.5709 284.426 51.574 287.762 53.1086 288.896C55.0434 290.297 58.7797 292.499 67.5867 292.632C76.9941 292.766 84.1998 290.497 85.8011 289.963C102.748 284.359 113.89 273.283 119.828 267.145C127.701 259.139 134.106 252.6 138.309 241.658C145.048 224.645 142.046 207.898 141.378 207.898Z" fill="#3D3D3D"/>
<path opacity="0.13" d="M140.044 233.652C139.577 233.385 136.774 238.055 132.771 243.593C132.771 243.593 123.164 256.937 110.754 268.279C103.948 274.484 91.5387 284.091 71.8564 291.631C75.9263 291.898 81.9978 291.764 88.7365 289.496C90.8715 288.762 96.209 286.76 109.086 275.551C119.361 266.611 125.099 261.674 130.836 253C137.041 243.726 140.711 233.985 140.044 233.652Z" fill="#3D3D3D"/>
<path d="M148.383 198.227C144.18 199.695 141.578 202.297 138.842 205.032C131.236 212.705 128.501 221.378 126.366 228.384C119.961 249.467 116.691 259.942 115.224 269.149C113.489 279.624 112.021 293.502 112.488 309.915C115.958 312.317 120.895 315.386 127.166 318.055C134.372 321.124 140.844 323.859 149.184 323.192C152.52 322.925 158.258 321.991 164.663 318.055C164.996 313.718 165.73 306.979 167.665 299.04C171.001 284.962 174.604 280.892 180.475 263.412C185.079 249.601 187.347 242.528 187.014 234.055C186.747 228.117 186.213 216.508 177.473 207.434C170.801 200.562 158.858 194.557 148.383 198.227Z" fill="white"/>
<path d="M145.381 198.693C137.374 203.497 132.504 211.503 128.501 219.71C124.231 228.583 121.028 237.924 118.693 247.532C113.823 267.547 112.622 288.297 111.821 308.847C111.754 310.114 113.756 310.114 113.823 308.847C114.556 289.231 115.691 269.549 120.094 250.334C122.229 240.926 125.165 231.652 129.235 222.845C133.171 214.239 138.042 205.365 146.382 200.428C147.449 199.761 146.448 198.026 145.381 198.693Z" fill="black"/>
<path d="M171.201 203.03C178.74 208.901 183.944 217.174 185.612 226.582C187.481 237.324 184.879 248.266 181.276 258.34C177.806 268.081 173.269 277.355 170.134 287.23C166.998 296.904 165.063 306.979 164.262 317.12C164.129 318.388 166.13 318.388 166.264 317.12C167.198 305.711 169.6 294.435 173.47 283.694C177.139 273.419 182.01 263.611 185.145 253.136C187.948 243.729 189.415 233.521 187.08 223.78C185.012 214.973 179.808 207.167 172.669 201.696C171.601 200.828 170.2 202.229 171.201 203.03Z" fill="black"/>
<path d="M112.221 310.178C120.294 317.384 130.302 322.121 141.044 323.655C149.584 324.856 160.593 324.923 166.197 317.25C166.931 316.183 165.196 315.182 164.462 316.249C158.858 323.855 146.448 322.855 138.308 321.187C129.101 319.318 120.628 314.982 113.622 308.777C112.688 307.909 111.287 309.311 112.221 310.178Z" fill="black"/>
<path opacity="0.11" d="M156.991 198.492C159.259 202.428 150.852 209.7 144.381 221.043C140.244 228.248 138.643 234.52 135.507 247.063C128.168 276.42 129.569 309.78 130.169 319.454C124.431 316.385 118.76 313.382 113.022 310.313C113.289 303.775 113.823 294.434 114.891 283.225C116.625 265.478 117.626 255.804 121.029 243.26C124.031 232.385 126.967 222.244 134.973 211.368C140.177 204.296 145.715 199.426 149.718 196.357C152.253 196.223 155.79 196.423 156.991 198.492Z" fill="#3D3D3D"/>
<path opacity="0.15" d="M131.503 218.642C132.371 218.909 128.835 232.853 123.164 263.678C119.427 283.894 118.56 291.166 121.562 300.173C125.432 311.716 133.238 318.721 131.77 320.256C130.836 321.19 126.833 319.855 113.022 309.514C112.689 294.969 113.623 274.887 119.427 251.868C124.031 233.654 130.569 218.308 131.503 218.642Z" fill="#3D3D3D"/>
<path d="M193.751 171.005C196.886 173.874 196.486 179.479 195.886 187.618C195.485 193.289 195.285 196.158 193.35 198.894C189.347 204.565 180.273 207.167 173.134 203.965C172.267 203.564 167.864 201.496 165.462 196.492C161.992 189.286 165.595 182.081 166.329 180.746C171.933 170.271 188.146 165.801 193.751 171.005Z" fill="#333333"/>
<path d="M193.883 134.107C196.419 134.641 197.953 138.177 201.022 145.316C203.624 151.387 204.825 156.324 205.359 158.66C206.226 162.73 206.693 166.199 206.894 168.801C205.092 169.335 203.291 169.802 201.489 170.336C201.089 172.671 200.222 176.14 198.487 180.01C196.085 185.347 194.083 189.951 189.413 192.086C184.009 194.555 178.204 192.353 176.269 191.419C175.535 193.287 174.468 195.422 173.067 197.691C172.066 199.292 170.998 200.626 170.064 201.76C163.993 203.295 161.191 201.694 160.123 200.893C154.519 196.756 154.986 183.413 163.593 168.334C163.126 167.6 162.392 166.533 161.458 165.332C159.523 162.93 158.856 162.863 157.988 161.462C157.721 161.062 155.653 157.525 157.321 154.323C158.122 152.788 159.79 151.454 161.658 151.321C163.926 151.12 164.66 152.922 166.595 153.456C169.931 154.456 173.601 150.854 182.741 142.247C190.414 135.041 191.948 133.707 193.883 134.107Z" fill="white"/>
<path d="M200.289 145.049C203.425 152.922 205.427 161.129 206.161 169.602C206.227 170.536 207.762 170.536 207.695 169.602C206.961 160.995 204.96 152.655 201.757 144.649C201.423 143.715 199.956 144.115 200.289 145.049Z" fill="black"/>
<path d="M206.561 168.934C204.759 169.134 202.958 169.401 201.157 169.602C200.223 169.735 200.223 171.203 201.157 171.136C202.958 170.936 204.759 170.669 206.561 170.469C207.495 170.269 207.495 168.801 206.561 168.934Z" fill="black"/>
<path d="M200.755 170.266C199.555 176.938 196.819 183.41 192.349 188.547C187.011 194.819 178.538 191.55 171.999 188.881C171.132 188.48 170.732 189.948 171.599 190.349C177.737 192.884 186.544 196.353 192.082 191.016C197.553 185.812 200.822 178.005 202.157 170.666C202.357 169.732 200.956 169.332 200.755 170.266Z" fill="black"/>
<path d="M175.27 191.752C173.869 194.955 172.134 197.957 170.132 200.826C169.599 201.627 170.866 202.361 171.4 201.56C173.402 198.691 175.136 195.622 176.537 192.486C176.938 191.619 175.67 190.885 175.27 191.752Z" fill="black"/>
<path d="M171.466 190.549C172.467 191.616 173.601 192.55 174.869 193.217C175.736 193.684 176.47 192.417 175.602 191.95C174.402 191.282 173.401 190.482 172.467 189.481C171.866 188.747 170.799 189.815 171.466 190.549Z" fill="black"/>
<path d="M194.685 155.923C194.284 155.122 194.351 154.122 194.885 153.454C194.484 153.321 194.017 153.254 193.617 153.121C193.817 154.255 193.817 155.322 193.75 156.457C194.017 156.19 194.284 155.923 194.484 155.723C194.551 155.856 194.618 155.99 194.751 156.123C194.951 155.189 193.484 154.789 193.283 155.723C193.083 156.523 193.617 157.257 194.484 157.257C194.951 157.257 195.218 156.924 195.218 156.523C195.352 155.256 195.285 154.055 195.085 152.787C195.018 152.253 194.151 152.053 193.817 152.454C192.816 153.721 192.616 155.322 193.417 156.724C193.817 157.524 195.152 156.79 194.685 155.923Z" fill="black"/>
<path d="M190.682 146.917C191.616 144.582 194.285 143.915 196.353 145.249C197.154 145.783 197.888 144.449 197.087 143.982C194.151 142.047 190.548 143.314 189.214 146.517C188.88 147.451 190.348 147.851 190.682 146.917Z" fill="black"/>
<path d="M187.612 158.927C187.345 158.927 187.012 158.927 186.745 158.927C186.678 158.793 186.678 158.66 186.611 158.527C186.745 158.06 186.945 157.926 187.345 158.06C187.412 158.126 187.545 158.26 187.612 158.326C187.612 158.326 187.612 158.326 187.612 158.26C187.412 157.926 186.945 157.793 186.611 157.993C186.278 158.193 186.144 158.66 186.344 158.994C186.611 159.327 187.012 159.527 187.412 159.461C187.812 159.327 188.146 158.994 188.146 158.527C188.146 157.526 186.745 157.259 186.278 158.06C186.077 158.393 186.211 158.86 186.545 159.06C186.945 159.394 187.412 159.26 187.612 158.927Z" fill="black"/>
<path d="M190.948 161.996C190.815 162.129 190.615 162.33 190.414 162.463C190.414 162.463 190.414 162.463 190.481 162.463C190.348 162.463 190.214 162.463 190.081 162.463C190.081 162.463 190.014 162.463 190.014 162.396C189.947 162.33 189.814 162.196 189.747 162.129V162.196C189.747 161.996 189.68 161.796 189.68 161.596C189.747 161.529 189.814 161.462 189.881 161.395C189.547 161.662 189.414 162.063 189.614 162.396C189.814 162.73 190.348 162.93 190.615 162.663C191.082 162.33 191.415 161.662 190.881 161.195C190.681 160.995 190.348 160.862 190.014 160.995C189.68 161.062 189.547 161.262 189.414 161.596C189.28 161.996 189.547 162.396 189.947 162.53C190.414 162.663 190.815 162.396 190.948 161.996Z" fill="black"/>
<path d="M185.678 162.062C185.611 162.062 185.611 162.062 185.544 162.062C184.61 162.062 184.543 163.597 185.544 163.597C185.611 163.597 185.611 163.597 185.678 163.597C186.678 163.597 186.678 162.062 185.678 162.062Z" fill="black"/>
<path d="M191.683 171.935C192.751 175.205 194.418 178.14 197.754 179.408C198.622 179.741 199.022 178.34 198.155 177.94C195.419 176.873 194.018 174.137 193.151 171.468C192.817 170.601 191.416 171.001 191.683 171.935Z" fill="black"/>
<path d="M191.483 172.739C191.883 172.138 192.55 171.805 193.351 171.671C193.751 171.605 193.951 171.071 193.885 170.737C193.751 170.27 193.351 170.137 192.951 170.204C191.816 170.337 190.882 171.004 190.215 171.938C189.615 172.739 190.882 173.54 191.483 172.739Z" fill="black"/>
<path d="M163.126 164.065C159.056 165.533 156.854 159.261 157.588 156.326C157.989 154.791 159.056 152.99 160.657 152.522C162.859 151.855 164.861 153.59 166.262 154.924C166.929 155.592 167.997 154.524 167.329 153.857C165.528 152.122 163.326 150.454 160.657 150.988C158.256 151.455 156.788 153.723 156.187 155.925C155.12 159.995 158.389 167.334 163.526 165.533C164.46 165.199 164.06 163.731 163.126 164.065Z" fill="black"/>
<path d="M188.613 135.574C187.813 136.509 186.612 138.043 185.211 140.045C180.14 147.451 180.607 150.453 177.071 152.588C174.335 154.256 170.132 154.79 166.93 153.455C164.528 152.454 163.86 150.92 161.792 150.987C159.524 151.053 157.389 152.922 156.521 155.123C155.454 157.725 156.521 160.127 157.255 161.662C157.922 163.063 158.856 165.131 160.858 165.598C162.126 165.865 163.26 165.398 163.86 165.064C163.794 165.798 163.66 166.933 163.594 168.334C163.26 174.138 163.927 178.141 164.194 180.744C164.861 187.015 165.462 192.019 163.594 196.756C160.725 203.828 153.586 206.964 150.984 208.098C139.908 212.969 129.633 208.899 128.232 208.299C126.031 207.365 115.489 203.028 112.887 193.153C111.286 187.215 113.087 181.211 113.821 178.675C114.154 177.608 115.022 174.939 116.757 171.87C120.56 165.064 126.031 160.928 129.834 158.593C131.101 153.989 133.236 147.384 136.972 139.845C141.176 131.304 143.511 126.567 148.849 122.164C157.322 115.158 166.93 114.291 170.065 114.091C171.667 113.957 179.539 113.49 188.88 117.293C195.485 119.962 203.225 123.165 206.427 131.104C210.097 140.378 204.893 149.586 203.892 151.32C203.625 150.186 203.091 148.451 201.957 146.783C200.289 144.315 198.421 143.314 195.619 141.379C193.817 139.978 191.416 138.177 188.613 135.574Z" fill="#333333"/>
<path d="M161.125 201.492C163.994 203.16 167.33 203.56 170.532 202.493C171.733 202.092 171.2 200.158 169.999 200.558C167.33 201.425 164.594 201.158 162.126 199.757C160.991 199.157 159.991 200.892 161.125 201.492Z" fill="black"/>
<path opacity="0.14" d="M157.989 161.595C158.523 163.129 159.924 164.197 161.458 164.397C163.126 164.597 164.794 163.796 165.661 162.329C165.328 164.53 164.994 169.001 167.063 173.938C169.865 180.743 175.336 183.946 177.738 185.347C183.609 188.683 189.213 188.883 191.949 188.816C191.348 189.884 190.014 191.618 187.746 192.753C182.341 195.421 176.67 191.819 176.337 191.618C174.869 194.821 173.334 197.156 172.133 198.824C170.465 201.093 169.798 201.626 169.331 201.826C166.129 203.695 161.925 201.76 160.724 201.159C159.39 202.427 157.455 204.028 154.92 205.563C152.785 206.83 147.047 210.166 139.107 210.233C139.107 210.233 128.432 210.233 119.825 203.027C116.489 200.225 115.088 197.757 114.688 196.956C114.354 196.289 112.953 193.62 112.62 189.283C111.886 180.943 115.488 173.871 117.49 170.669C121.093 164.931 125.697 161.528 128.632 159.727C128.432 160.46 125.963 170.802 131.434 175.806C138.307 182.011 153.852 176.14 157.255 167.199C158.122 164.997 158.122 162.929 157.989 161.595Z" fill="#111111"/>
<path opacity="0.07" d="M166.129 180.077C165.596 180.344 166.863 183.814 168.064 186.282C169.999 190.352 172.401 193.354 174.136 195.156C174.603 193.955 175.07 192.754 175.537 191.62C177.071 192.287 179.94 193.221 183.543 193.021C185.945 192.887 187.88 192.287 189.214 191.753C178.94 191.553 173.735 188.417 170.867 185.548C168.531 183.213 166.663 179.81 166.129 180.077Z" fill="#3D3D3D"/>
<path d="M331.861 118.493C330.927 117.96 330.727 116.692 330.594 115.825C330.127 112.689 332.462 110.153 332.862 109.62C335.331 106.884 336.732 108.285 339.067 105.75C340.802 103.882 340.668 102.347 343.337 99.8786C345.072 98.2106 345.672 98.4108 345.806 98.4775C346.74 98.8778 345.939 100.946 346.873 104.149C347.674 106.817 348.675 106.817 349.008 109.086C349.075 109.686 349.542 112.689 347.741 114.423C346.94 115.224 345.872 115.424 343.671 115.825C341.135 116.292 340.802 116.025 339.067 116.358C334.864 117.159 333.396 119.361 331.861 118.493Z" fill="white"/>
<path d="M331.661 115.688C321.586 126.096 311.512 136.571 301.437 146.979C300.169 148.447 300.103 150.648 301.237 152.116C302.505 153.718 304.773 154.118 306.575 152.984C316.916 140.974 327.191 128.898 337.532 116.888C335.597 116.488 333.663 116.088 331.661 115.688Z" fill="black"/>
<path d="M295.233 172.669C295.566 173.536 294.499 175.337 288.694 179.207C287.026 178.873 285.625 177.939 285.358 176.738C284.958 174.737 287.827 173.069 289.095 172.468C291.43 171.401 294.766 171.468 295.233 172.669Z" fill="black"/>
<path d="M177.873 200.155C174.27 200.956 167.932 202.49 164.996 207.694C163.062 211.097 163.462 214.7 163.595 215.968C164.263 221.639 168.199 226.376 172.669 228.444C178.14 230.913 183.811 229.045 186.68 228.044C211.633 219.437 224.11 215.167 229.181 212.632C243.859 205.226 260.205 196.886 278.82 181.407C283.624 177.404 287.427 173.868 290.095 171.332C291.163 171.933 293.565 173.067 296.434 172.734C298.769 172.467 300.303 171.399 302.572 169.798C304.173 168.664 306.041 167.329 307.709 164.861C309.311 162.525 309.844 160.457 310.311 158.722C310.778 156.788 311.712 153.318 310.511 152.584C309.644 152.051 308.71 153.518 306.375 153.585C306.175 153.585 303.306 153.585 302.038 151.784C300.837 150.116 302.105 148.581 301.037 147.247C299.903 145.779 296.967 145.912 295.099 146.446C290.763 147.78 288.694 152.584 287.36 155.12C283.69 162.392 278.419 166.328 268.612 173.734C261.006 179.472 254.2 182.141 245.06 185.811C241.457 187.278 234.585 189.947 225.511 192.149C210.232 195.752 198.156 195.618 177.873 200.155Z" fill="white"/>
<path d="M166.931 207.027C173.803 200.155 184.611 199.888 193.685 198.62C204.293 197.153 214.902 195.551 225.31 193.083C243.791 188.813 262.139 181.674 276.617 169.13C280.42 165.794 283.956 162.125 286.892 157.922C289.561 154.119 294.632 142.91 300.903 148.247C301.904 149.048 303.305 147.647 302.304 146.846C299.902 144.778 296.7 144.644 293.898 146.046C289.961 148.047 288.16 152.451 285.825 155.987C279.753 165.194 270.546 172.266 261.072 177.67C241.123 189.013 218.171 193.083 195.753 196.352C185.612 197.82 173.336 197.953 165.596 205.626C164.595 206.493 165.997 207.894 166.931 207.027Z" fill="black"/>
<path d="M165.463 204.625C160.993 212.231 161.86 222.306 169.333 227.71C178.273 234.182 190.817 228.044 199.957 224.908C221.508 217.435 242.057 207.294 261.139 194.751C271.747 187.812 281.822 180.073 291.363 171.733C292.364 170.865 290.896 169.464 289.962 170.332C260.005 196.486 223.643 217.169 185.079 227.51C178.474 229.311 171.601 228.911 167.331 222.906C163.595 217.769 164.062 210.964 167.198 205.693C167.865 204.559 166.13 203.558 165.463 204.625Z" fill="black"/>
<path d="M309.244 151.184C309.577 152.719 309.911 154.386 309.778 155.988C309.511 158.189 308.443 158.923 307.643 160.725C307.309 161.525 307.242 162.326 306.975 163.127C306.442 164.928 305.708 165.328 304.44 166.396C303.039 167.53 302.238 168.865 301.037 170.132C299.102 172.201 297.968 171.533 295.566 171.267C293.832 171.066 292.03 170.799 290.295 170.599C289.028 170.466 289.028 172.467 290.295 172.601C293.164 173.001 298.035 174.669 300.704 173.268C301.771 172.734 302.372 171.734 303.039 170.799C303.906 169.599 304.707 168.598 306.041 167.931C306.708 167.597 307.042 167.864 307.643 167.33C308.376 166.73 308.577 165.729 308.777 164.861C309.244 162.726 309.911 161.325 310.845 159.457C312.246 156.722 311.779 153.653 311.179 150.784C310.912 149.383 308.977 149.916 309.244 151.184Z" fill="black"/>
<path d="M301.037 147.449C299.502 149.717 300.703 152.986 303.105 154.054C305.907 155.321 309.043 153.453 310.444 150.985C311.111 149.85 309.377 148.85 308.71 149.984C307.842 151.518 306.041 152.92 304.239 152.319C302.638 151.852 301.771 149.85 302.772 148.449C303.439 147.382 301.704 146.381 301.037 147.449Z" fill="black"/>
<path d="M302.305 148.382C312.379 137.907 322.321 127.299 332.128 116.557C332.996 115.623 331.595 114.155 330.727 115.156C320.92 125.898 310.978 136.506 300.904 146.981C299.97 147.848 301.371 149.316 302.305 148.382Z" fill="black"/>
<path d="M310.378 150.519C319.986 139.443 329.527 128.368 339.134 117.292C340.002 116.291 338.534 114.89 337.733 115.891C328.125 126.967 318.585 138.042 308.977 149.117C308.11 150.118 309.511 151.519 310.378 150.519Z" fill="black"/>
<path d="M294.432 172.402C293.164 173.669 291.897 175.004 290.629 176.272C290.229 176.672 289.628 177.539 289.161 177.806C287.493 178.673 286.626 177.005 286.025 175.938C285.358 174.804 283.623 175.804 284.291 176.939C285.291 178.607 286.959 180.742 289.161 180.075C290.362 179.741 291.23 178.54 292.03 177.673C293.298 176.405 294.565 175.071 295.833 173.803C296.767 172.869 295.299 171.468 294.432 172.402Z" fill="black"/>
<path d="M338.601 117.024C342.604 118.825 347.474 117.758 349.543 113.621C350.543 111.62 350.61 109.218 349.876 107.149C348.608 103.813 344.005 100.878 348.075 97.4084C349.075 96.5411 347.608 95.1399 346.674 96.0073C344.338 98.0089 343.671 101.078 345.206 103.747C346.674 106.349 349.009 107.817 348.275 111.219C347.474 115.222 343.204 116.89 339.668 115.289C338.4 114.755 337.4 116.49 338.601 117.024Z" fill="black"/>
<path d="M331.995 114.823C332.396 111.887 333.463 109.952 336.065 108.484C337.4 107.75 338.801 107.15 340.002 106.216C342.47 104.214 343.204 100.545 346.14 99.0768C347.274 98.4763 346.273 96.8084 345.139 97.3421C343.471 98.1427 342.47 99.4104 341.536 101.012C340.068 103.347 338.734 104.881 336.265 106.149C332.262 108.217 330.594 110.286 329.994 114.823C329.86 116.09 331.862 116.09 331.995 114.823Z" fill="black"/>
<path d="M331.66 116.755C333.529 116.021 335.463 116.288 337.065 117.489C338.066 118.29 339.066 116.555 338.066 115.754C336.064 114.22 333.395 113.886 331.06 114.82C329.926 115.287 330.46 117.222 331.66 116.755Z" fill="black"/>
<path d="M338.266 107.552C340.868 106.684 343.537 106.618 346.206 107.285C347.474 107.618 348.007 105.683 346.74 105.35C343.737 104.616 340.668 104.683 337.733 105.617C336.532 106.017 337.065 107.952 338.266 107.552Z" fill="#5222D0"/>
<path d="M337.133 107.55C342.003 105.482 343.471 99.8109 348.008 97.2756C347.608 96.7418 347.207 96.208 346.807 95.6743C343.337 98.8101 346.407 103.08 347.274 106.55C347.741 106.149 348.275 105.816 348.742 105.415C346.206 104.348 343.671 103.881 340.936 104.081C341.202 104.615 341.536 105.082 341.803 105.615C342.737 103.814 343.871 102.213 345.139 100.612C344.605 100.278 344.005 99.9443 343.471 99.6107C342.937 101.012 342.27 102.747 342.537 104.214C342.604 104.615 343.071 104.948 343.471 104.948C345.072 104.882 345.472 102.68 346.006 101.479C345.406 101.279 344.739 101.145 344.138 100.945C344.272 101.946 344.605 103.147 344.472 104.214C344.605 103.947 344.805 103.614 344.939 103.347C344.472 103.614 342.67 103.414 341.87 103.614C340.535 103.881 339.401 104.348 338.2 105.015C337.333 105.482 337.733 106.95 338.734 106.883C340.402 106.75 342.07 106.55 343.738 106.416C345.005 106.283 345.005 104.281 343.738 104.415C342.07 104.548 340.402 104.748 338.734 104.882C338.934 105.482 339.067 106.149 339.268 106.75C340.669 106.016 342.203 105.482 343.804 105.415C344.405 105.349 345.339 105.615 345.873 105.215C347.074 104.348 346.273 102.28 346.14 101.012C346.006 100.144 344.739 99.4773 344.272 100.478C344.205 100.678 343.137 102.947 343.471 102.947C343.804 103.214 344.138 103.414 344.405 103.681C344.205 102.68 345.005 101.012 345.339 100.144C345.673 99.2104 344.272 98.4098 343.671 99.1437C342.27 100.812 341.069 102.613 340.001 104.548C339.668 105.148 340.068 106.149 340.869 106.083C343.271 105.882 345.472 106.216 347.674 107.15C348.475 107.484 349.409 106.95 349.142 106.016C348.475 103.347 345.539 99.4106 348.141 97.0754C349.009 96.2748 347.874 94.9404 346.94 95.4741C342.47 98.0095 340.869 103.681 336.065 105.749C334.931 106.349 335.998 108.017 337.133 107.55Z" fill="#282828"/>
<path d="M346.873 95.2089C344.071 96.9436 342.336 99.5457 340.268 102.014C339 103.549 337.599 104.483 336.198 105.817C335.664 106.284 335.197 106.551 335.197 107.285C335.197 107.419 335.264 107.619 335.464 107.685C339.667 109.487 344.338 104.683 348.474 108.086C348.741 108.286 349.075 108.286 349.275 107.952C350.476 106.218 347.807 104.55 346.806 103.482C346.473 103.149 345.806 103.482 345.939 103.949C346.139 104.616 346.073 104.55 346.54 105.083C346.94 105.617 347.807 105.083 347.407 104.55C347.273 104.216 347.073 103.949 346.94 103.616C346.673 103.749 346.406 103.949 346.073 104.083C346.54 104.55 349.008 106.484 348.408 107.352C348.675 107.285 348.941 107.285 349.208 107.218C347.807 106.084 346.206 105.55 344.338 105.617C343.27 105.684 342.203 105.884 341.135 106.084C340.268 106.284 339.467 106.484 338.6 106.551C337.666 106.685 336.532 107.218 337.266 105.951C337.666 105.284 338.867 104.683 339.401 104.149C340.201 103.349 340.935 102.481 341.602 101.547C343.337 99.4122 344.938 97.2772 347.273 95.8094C347.941 95.7427 347.407 94.8753 346.873 95.2089Z" fill="#282828"/>
<path d="M336.598 108.017C338.6 108.284 340.535 107.617 342.536 107.35C344.204 107.15 345.539 107.417 347.073 107.95C347.941 108.284 348.474 108.484 349.409 108.351C349.742 108.284 349.942 108.084 349.876 107.75C349.742 106.883 349.542 106.416 349.075 105.682C348.741 105.148 347.874 105.682 348.208 106.216C348.675 106.75 348.875 107.35 348.941 108.017C349.075 107.817 349.275 107.617 349.409 107.417C347.54 107.617 345.672 106.283 343.737 106.283C341.469 106.349 339.134 107.417 336.865 107.083C336.198 106.95 335.931 107.884 336.598 108.017Z" fill="#282828"/>
<path d="M346.073 96.942C346.406 96.475 346.807 96.0746 347.34 95.8078C347.474 95.741 347.941 95.4075 348.074 95.5409C348.274 95.6743 347.741 96.0746 347.607 96.1414C346.807 96.8086 346.273 97.6759 345.873 98.61C345.606 99.2105 346.606 99.4773 346.807 98.8769C347.207 97.9428 347.874 97.3423 348.608 96.6084C349.075 96.2081 349.342 95.6076 348.875 95.0071C347.874 93.6727 345.939 95.4075 345.272 96.2748C344.938 96.7418 345.672 97.4758 346.073 96.942Z" fill="#282828"/>
<path d="M348.341 94.7398C347.207 95.4737 346.406 96.6079 346.073 97.9423C345.939 98.5428 346.873 98.8097 347.007 98.2092C347.274 97.1417 347.874 96.2743 348.808 95.6071C349.409 95.2068 348.875 94.3395 348.341 94.7398Z" fill="#282828"/>
<path d="M166.263 206.897C168.398 202.694 176.138 201.092 180.408 200.559C181.675 200.359 181.142 198.424 179.874 198.624C175.07 199.291 166.997 201.159 164.529 205.896C163.995 207.031 165.729 208.098 166.263 206.897Z" fill="black"/>
<path opacity="0.13" d="M163.995 216.569C170 216.169 178.74 215.368 189.082 213.367C218.705 207.695 239.788 196.687 252.665 189.881C263.34 184.21 277.485 175.737 293.03 163.527C299.836 161.325 304.039 158.323 306.708 155.921C308.509 154.32 309.844 152.719 310.511 153.052C311.578 153.653 309.91 159.19 307.642 163.194C305.64 166.796 303.305 168.865 302.571 169.532C300.703 171.133 299.636 172.267 297.834 172.734C294.498 173.602 291.496 171.8 290.495 171.133C288.026 173.068 284.424 175.937 279.953 179.34C261.939 193.017 252.865 199.889 240.923 206.428C229.914 212.433 220.707 216.035 202.759 222.974C201.091 223.641 198.889 224.375 194.486 225.843C182.743 229.78 179.941 230.247 176.672 229.646C175.337 229.379 172.068 228.779 169.066 226.177C165.129 222.641 164.262 218.104 163.995 216.569Z" fill="#3D3D3D"/>
<path opacity="0.19" d="M216.904 217.037C216.771 216.837 217.905 215.903 242.925 200.023C275.884 179.073 273.549 180.942 277.018 178.406C291.43 167.731 297.835 160.525 301.171 162.66C303.439 164.128 303.839 169.466 301.371 171.801C299.236 173.869 294.766 173.669 290.762 170.733C282.689 177.939 270.68 187.747 254.867 197.688C236.186 209.231 217.371 217.837 216.904 217.037Z" fill="#3D3D3D"/>
</svg>
