<svg width="28" height="27" viewBox="0 0 28 27" fill="none" xmlns="http://www.w3.org/2000/svg">
<path d="M8.89268 2.9987C9.1687 2.2186 9.67978 1.54326 10.3555 1.06568C11.0313 0.58811 11.8385 0.331793 12.666 0.332031H15.3327C17.074 0.332031 18.5553 1.44536 19.106 2.9987H25.9993C26.353 2.9987 26.6921 3.13917 26.9422 3.38922C27.1922 3.63927 27.3327 3.97841 27.3327 4.33203V25.6654C27.3327 26.019 27.1922 26.3581 26.9422 26.6082C26.6921 26.8582 26.353 26.9987 25.9993 26.9987H1.99935C1.64573 26.9987 1.30659 26.8582 1.05654 26.6082C0.806491 26.3581 0.666016 26.019 0.666016 25.6654V4.33203C0.666016 3.97841 0.806491 3.63927 1.05654 3.38922C1.30659 3.13917 1.64573 2.9987 1.99935 2.9987H8.89268ZM3.33268 5.66536V24.332H24.666V5.66536H19.106C18.83 6.44546 18.3189 7.1208 17.6432 7.59838C16.9674 8.07595 16.1602 8.33227 15.3327 8.33203H12.666C11.8385 8.33227 11.0313 8.07595 10.3555 7.59838C9.67978 7.1208 9.1687 6.44546 8.89268 5.66536H3.33268ZM12.666 2.9987C12.3124 2.9987 11.9733 3.13917 11.7232 3.38922C11.4732 3.63927 11.3327 3.97841 11.3327 4.33203C11.3327 4.68565 11.4732 5.02479 11.7232 5.27484C11.9733 5.52489 12.3124 5.66536 12.666 5.66536H15.3327C15.6863 5.66536 16.0254 5.52489 16.2755 5.27484C16.5255 5.02479 16.666 4.68565 16.666 4.33203C16.666 3.97841 16.5255 3.63927 16.2755 3.38922C16.0254 3.13917 15.6863 2.9987 15.3327 2.9987H12.666ZM11.3327 10.9987L17.9993 14.9987L11.3327 18.9987V10.9987Z" fill="#222222"/>
</svg>
