<svg width="19" height="21" viewBox="0 0 19 21" fill="none" xmlns="http://www.w3.org/2000/svg">
<path d="M11.1202 15.0247L6.92121 12.7347C6.373 13.3207 5.66119 13.7284 4.87828 13.9046C4.09537 14.0808 3.27756 14.0174 2.53113 13.7227C1.7847 13.428 1.14417 12.9156 0.692774 12.2521C0.241381 11.5886 0 10.8047 0 10.0022C0 9.19967 0.241381 8.41573 0.692774 7.75222C1.14417 7.08872 1.7847 6.57632 2.53113 6.28163C3.27756 5.98694 4.09537 5.92358 4.87828 6.09978C5.66119 6.27599 6.373 6.6836 6.92121 7.26967L11.1212 4.97967C10.8828 4.03574 10.9968 3.03726 11.4418 2.17137C11.8869 1.30549 12.6325 0.631649 13.5389 0.27617C14.4452 -0.0793098 15.4501 -0.0920268 16.3652 0.240403C17.2803 0.572832 18.0427 1.22758 18.5095 2.08193C18.9764 2.93627 19.1156 3.93156 18.9011 4.88121C18.6866 5.83087 18.1332 6.6697 17.3444 7.24048C16.5557 7.81125 15.5859 8.07478 14.6168 7.98166C13.6477 7.88855 12.7458 7.44518 12.0802 6.73467L7.88021 9.02467C8.04141 9.66603 8.04141 10.3373 7.88021 10.9787L12.0792 13.2687C12.7448 12.5582 13.6467 12.1148 14.6158 12.0217C15.5849 11.9286 16.5547 12.1921 17.3434 12.7629C18.1322 13.3336 18.6856 14.1725 18.9001 15.1221C19.1146 16.0718 18.9754 17.0671 18.5085 17.9214C18.0417 18.7758 17.2793 19.4305 16.3642 19.7629C15.4491 20.0954 14.4442 20.0826 13.5379 19.7272C12.6315 19.3717 11.8859 18.6979 11.4408 17.832C10.9958 16.9661 10.8818 15.9676 11.1202 15.0237V15.0247ZM4.00021 12.0017C4.53064 12.0017 5.03935 11.791 5.41442 11.4159C5.78949 11.0408 6.00021 10.5321 6.00021 10.0017C6.00021 9.47124 5.78949 8.96253 5.41442 8.58745C5.03935 8.21238 4.53064 8.00167 4.00021 8.00167C3.46977 8.00167 2.96107 8.21238 2.58599 8.58745C2.21092 8.96253 2.00021 9.47124 2.00021 10.0017C2.00021 10.5321 2.21092 11.0408 2.58599 11.4159C2.96107 11.791 3.46977 12.0017 4.00021 12.0017ZM15.0002 6.00167C15.5306 6.00167 16.0393 5.79096 16.4144 5.41588C16.7895 5.04081 17.0002 4.5321 17.0002 4.00167C17.0002 3.47124 16.7895 2.96253 16.4144 2.58745C16.0393 2.21238 15.5306 2.00167 15.0002 2.00167C14.4698 2.00167 13.9611 2.21238 13.586 2.58745C13.2109 2.96253 13.0002 3.47124 13.0002 4.00167C13.0002 4.5321 13.2109 5.04081 13.586 5.41588C13.9611 5.79096 14.4698 6.00167 15.0002 6.00167ZM15.0002 18.0017C15.5306 18.0017 16.0393 17.791 16.4144 17.4159C16.7895 17.0408 17.0002 16.5321 17.0002 16.0017C17.0002 15.4712 16.7895 14.9625 16.4144 14.5875C16.0393 14.2124 15.5306 14.0017 15.0002 14.0017C14.4698 14.0017 13.9611 14.2124 13.586 14.5875C13.2109 14.9625 13.0002 15.4712 13.0002 16.0017C13.0002 16.5321 13.2109 17.0408 13.586 17.4159C13.9611 17.791 14.4698 18.0017 15.0002 18.0017Z" fill="#222222"/>
</svg>
