<svg width="30" height="29" viewBox="0 0 30 29" fill="none" xmlns="http://www.w3.org/2000/svg">
<path d="M27.0007 3.33464V22.9626C27.0008 23.092 26.9633 23.2186 26.8928 23.327C26.8222 23.4355 26.7217 23.521 26.6033 23.5733L15.0007 28.708L3.39798 23.5746C3.27923 23.5222 3.17837 23.4362 3.10779 23.3273C3.03721 23.2183 2.99997 23.0911 3.00065 22.9613V3.33464H0.333984V0.667969H29.6673V3.33464H27.0007ZM5.66732 3.33464V21.6613L15.0007 25.7946L24.334 21.6613V3.33464H5.66732ZM9.66732 8.66797H20.334V11.3346H9.66732V8.66797ZM9.66732 14.0013H20.334V16.668H9.66732V14.0013Z" fill="#222222"/>
</svg>
