<svg width="16" height="13" viewBox="0 0 16 13" fill="none" xmlns="http://www.w3.org/2000/svg">
<path d="M8.57707 1.00127L14.9277 12.0013C14.9862 12.1026 15.0171 12.2176 15.0171 12.3346C15.0171 12.4516 14.9863 12.5666 14.9277 12.6679C14.8692 12.7693 14.7851 12.8534 14.6837 12.912C14.5824 12.9705 14.4674 13.0013 14.3504 13.0013H1.64907C1.53205 13.0013 1.41709 12.9705 1.31574 12.912C1.2144 12.8534 1.13024 12.7693 1.07173 12.6679C1.01322 12.5666 0.982421 12.4516 0.982422 12.3346C0.982423 12.2176 1.01323 12.1026 1.07174 12.0013L7.4224 1.00127C7.48092 0.899934 7.56508 0.815783 7.66642 0.757277C7.76776 0.69877 7.88272 0.667969 7.99974 0.667969C8.11676 0.667969 8.23171 0.69877 8.33306 0.757277C8.4344 0.815783 8.51856 0.899934 8.57707 1.00127ZM2.80374 11.6679H13.1957L7.99974 2.66794L2.80374 11.6679ZM7.33307 9.66794H8.6664V11.0013H7.33307V9.66794ZM7.33307 5.00127H8.6664V8.33461H7.33307V5.00127Z" fill="#666666"/>
</svg>
